<svg width="57" height="56" viewBox="0 0 57 56" fill="none" xmlns="http://www.w3.org/2000/svg">
<g clip-path="url(#clip0_1946_103)">
<path fill-rule="evenodd" clip-rule="evenodd" d="M31.0441 11.6404C32.0346 11.0786 32.8112 10.2046 33.2528 9.15486C33.6943 8.10516 33.7759 6.93881 33.4848 5.83786C33.1937 4.73691 32.5463 3.76331 31.6436 3.06903C30.741 2.37475 29.6338 1.99885 28.495 2C27.3563 2.00116 26.2499 2.3793 25.3486 3.07542C24.4474 3.77153 23.802 4.74644 23.5131 5.84798C23.2242 6.94952 23.3082 8.1157 23.7518 9.16451C24.1955 10.2133 24.9739 11.0857 25.9656 11.6456L25.9398 11.692C24.2513 15.216 21.9054 20.2635 18.2834 22.1583C15.3085 23.7128 11.0395 22.9317 7.86867 22.349C7.81781 21.628 7.56588 20.9357 7.14146 20.3506C6.71705 19.7656 6.13714 19.3111 5.46754 19.0389C4.79795 18.7668 4.06547 18.6877 3.35321 18.8107C2.64095 18.9338 1.97744 19.254 1.43795 19.735C0.898454 20.216 0.504588 20.8386 0.301034 21.5322C0.0974808 22.2257 0.0923904 22.9625 0.28634 23.6588C0.48029 24.3551 0.865516 24.9831 1.39831 25.4715C1.9311 25.9599 2.59013 26.2893 3.30062 26.4221L10.9003 46.04C11.4639 47.4944 12.4541 48.7444 13.7409 49.6259C15.0277 50.5074 16.5509 50.9791 18.1107 50.9793H38.8887C40.4484 50.9791 41.9717 50.5074 43.2585 49.6259C44.5453 48.7444 45.5355 47.4944 46.0991 46.04L53.6962 26.4221C54.4022 26.2907 55.0577 25.9653 55.5891 25.4824C56.1206 24.9994 56.5071 24.378 56.7053 23.6878C56.9035 22.9975 56.9056 22.2657 56.7113 21.5744C56.517 20.883 56.134 20.2594 55.6053 19.7735C55.0766 19.2875 54.4229 18.9584 53.7177 18.823C53.0124 18.6876 52.2834 18.7513 51.6123 19.0069C50.9412 19.2625 50.3545 19.7 49.918 20.2702C49.4815 20.8405 49.2125 21.521 49.141 22.2356C45.8954 22.6558 41.7115 23.192 38.7159 21.6272C35.1662 19.7711 32.7867 15.0716 31.0441 11.6404ZM28.5641 17.7423C30.544 20.9544 32.9182 24.4114 36.3288 26.1979C39.7497 27.9844 43.9594 27.8941 47.7231 27.5719L41.2913 44.1762C41.1036 44.661 40.7737 45.0778 40.3449 45.3717C39.9162 45.6657 39.4085 45.8232 38.8887 45.8235H18.1107C17.5908 45.8232 17.0832 45.6657 16.6544 45.3717C16.2256 45.0778 15.8958 44.661 15.7081 44.1762L9.36386 27.7987C13.0735 28.2731 17.2703 28.5051 20.6706 26.7263C24.2229 24.8702 26.5998 21.1271 28.5641 17.7423Z" fill="#F09021"/>
</g>
<defs>
<clipPath id="clip0_1946_103">
<rect width="56" height="56" fill="white" transform="translate(0.5)"/>
</clipPath>
</defs>
</svg>
