<svg width="57" height="56" viewBox="0 0 57 56" fill="none" xmlns="http://www.w3.org/2000/svg">
<mask id="mask0_7632_28805" style="mask-type:luminance" maskUnits="userSpaceOnUse" x="0" y="0" width="57" height="56">
<path d="M56.5 0H0.5V56H56.5V0Z" fill="white"/>
</mask>
<g mask="url(#mask0_7632_28805)">
<path d="M15.5522 26.931C16.1467 26.931 16.7198 27.1586 17.1582 27.5689L17.2273 27.6391C17.4488 27.8643 17.6249 28.1322 17.7453 28.4277C17.8656 28.7232 17.9277 29.0403 17.9277 29.3607C17.9277 29.6811 17.8656 29.9981 17.7453 30.2937C17.6249 30.5892 17.4488 30.857 17.2273 31.0822L11.9696 36.4365L11.1346 37.2868H12.3264H40.0088C40.6365 37.2868 41.2403 37.5405 41.6869 37.995C42.1338 38.4499 42.3864 39.0686 42.3864 39.7156C42.3864 40.3626 42.1338 40.9814 41.6869 41.4362C41.2403 41.8908 40.6365 42.1445 40.0088 42.1445H12.3264H11.1342L11.9697 42.9949L17.23 48.3488C17.4513 48.574 17.6275 48.8418 17.7478 49.1372C17.8681 49.4326 17.9302 49.7494 17.9303 50.0697C17.9304 50.39 17.8686 50.7069 17.7485 51.0023C17.6283 51.2978 17.4525 51.5657 17.2313 51.791C17.0101 52.0162 16.748 52.1945 16.4601 52.316C16.1723 52.4374 15.8641 52.4999 15.553 52.5C15.2419 52.5001 14.9337 52.4379 14.6457 52.3166C14.3578 52.1953 14.0956 52.0173 13.8742 51.7922L3.69923 41.436C3.2525 40.9811 3 40.3625 3 39.7156C3 39.0688 3.2525 38.4501 3.69923 37.9953L13.8743 27.639C14.3209 27.1846 14.9246 26.931 15.5522 26.931Z" fill="#F09021"/>
<path d="M16.6974 13.8746C16.1036 13.9502 15.5577 14.252 15.1708 14.7226C14.7806 15.1971 14.582 15.807 14.6178 16.4277C14.6536 17.0483 14.9208 17.6298 15.3623 18.054C15.8035 18.478 16.3854 18.713 16.9886 18.7137H44.6705H45.8623L45.0273 19.564L39.7808 24.9069L39.5631 25.1577C39.1986 25.644 39.0267 26.2539 39.084 26.8656C39.1417 27.4825 39.4278 28.052 39.8816 28.4592C40.335 28.8662 40.922 29.0809 41.5231 29.0622C42.1239 29.0435 42.697 28.7929 43.1255 28.3585L53.2897 18.0162L53.5075 17.7651C53.8576 17.2998 54.0316 16.7198 53.9953 16.1321C53.9587 15.5393 53.7108 14.9822 53.3006 14.5646L43.1363 4.21926L42.8898 3.9977C42.4344 3.64278 41.8694 3.46825 41.2992 3.50475C40.7239 3.54156 40.1799 3.79082 39.7698 4.20817C39.3228 4.66336 39.0706 5.2792 39.0706 5.9255C39.0706 6.57236 39.3233 7.19115 39.77 7.64597L45.0303 13.0058L45.8647 13.856H44.6734H17.0033L16.6974 13.8746Z" fill="#F09021"/>
<path d="M14.6457 52.3166C14.9337 52.4379 15.2419 52.5001 15.553 52.5C15.8641 52.4999 16.1723 52.4374 16.4601 52.316C16.748 52.1945 17.0101 52.0162 17.2313 51.791C17.4525 51.5657 17.6283 51.2978 17.7485 51.0023C17.8686 50.7069 17.9304 50.39 17.9303 50.0697C17.9302 49.7494 17.8681 49.4326 17.7478 49.1372C17.6275 48.8418 17.4513 48.574 17.23 48.3488L11.9697 42.9949L11.1342 42.1445H12.3264H40.0088C40.6365 42.1445 41.2403 41.8908 41.6869 41.4362C42.1338 40.9814 42.3864 40.3626 42.3864 39.7156C42.3864 39.0686 42.1338 38.4499 41.6869 37.995C41.2403 37.5405 40.6365 37.2868 40.0088 37.2868H12.3264H11.1346L11.9696 36.4365L17.2273 31.0822C17.4488 30.857 17.6249 30.5892 17.7453 30.2937C17.8656 29.9981 17.9277 29.6811 17.9277 29.3607C17.9277 29.0403 17.8656 28.7232 17.7453 28.4277C17.6249 28.1322 17.4488 27.8643 17.2273 27.6391L17.1582 27.5689C16.7198 27.1586 16.1467 26.931 15.5522 26.931C14.9246 26.931 14.3209 27.1846 13.8743 27.639L3.69923 37.9953C3.2525 38.4501 3 39.0688 3 39.7156C3 40.3625 3.2525 40.9811 3.69923 41.436L13.8742 51.7922C14.0956 52.0173 14.3578 52.1953 14.6457 52.3166ZM14.6457 52.3166L14.4517 52.7774M16.6974 13.8746C16.1036 13.9502 15.5577 14.252 15.1708 14.7226C14.7806 15.1971 14.582 15.807 14.6178 16.4277C14.6536 17.0483 14.9208 17.6298 15.3623 18.054C15.8035 18.478 16.3854 18.713 16.9886 18.7137H44.6705H45.8623L45.0273 19.564L39.7808 24.9069L39.5631 25.1577C39.1986 25.644 39.0267 26.2539 39.084 26.8656C39.1417 27.4825 39.4278 28.052 39.8816 28.4592C40.335 28.8662 40.922 29.0809 41.5231 29.0622C42.1239 29.0435 42.697 28.7929 43.1255 28.3585L53.2897 18.0162L53.5075 17.7651C53.8576 17.2998 54.0316 16.7198 53.9953 16.1321C53.9587 15.5393 53.7108 14.9822 53.3006 14.5646L43.1363 4.21926L42.8898 3.9977C42.4344 3.64278 41.8694 3.46825 41.2992 3.50475C40.7239 3.54156 40.1799 3.79082 39.7698 4.20817C39.3228 4.66336 39.0706 5.2792 39.0706 5.9255C39.0706 6.57236 39.3233 7.19115 39.77 7.64597L45.0303 13.0058L45.8647 13.856H44.6734H17.0033L16.6974 13.8746Z" stroke="#313335"/>
</g>
</svg>
