<svg width="57" height="56" viewBox="0 0 57 56" fill="none" xmlns="http://www.w3.org/2000/svg">
<path d="M25.07 32.375L28.5 24.95L31.9028 32.375L39.3889 35.75L31.9028 39.152L28.5 46.55L25.07 39.152L17.6111 35.75L25.07 32.375ZM39.3889 7.4V2H44.8333V7.4H47.5556C48.9983 7.4 50.3867 7.967 51.3939 8.993C52.4283 9.992 53 11.369 53 12.8V50.6C53 52.031 52.4283 53.408 51.3939 54.407C50.3867 55.433 48.9983 56 47.5556 56H9.44444C8.00167 56 6.61333 55.433 5.60611 54.407C4.57167 53.408 4 52.031 4 50.6V12.8C4 11.369 4.57167 9.992 5.60611 8.993C6.61333 7.967 8.00167 7.4 9.44444 7.4H12.1667V2H17.6111V7.4H39.3889ZM9.44444 20.9V50.6H47.5556V20.9H9.44444Z" fill="#F09021"/>
</svg>