<svg width="56" height="56" viewBox="0 0 56 56" fill="none" xmlns="http://www.w3.org/2000/svg">
<path d="M54.4913 23.1611V38.1287C54.4913 45.7688 54.4913 49.5888 52.1627 51.9598C49.8368 54.3334 46.0883 54.3334 38.5966 54.3334H17.4035C9.91182 54.3334 6.1633 54.3334 3.83737 51.9598C1.50879 49.5914 1.50879 45.7688 1.50879 38.1313V30.7217C1.50879 25.1691 1.50879 22.3902 2.97376 20.2842C4.44137 18.1781 7.01102 17.2642 12.153 15.4283L33.346 7.86505C42.9782 4.42913 47.7943 2.70985 51.1428 5.1338C52.9654 6.45042 53.7946 8.59091 54.1734 11.9474" stroke="#F09021" stroke-width="3" stroke-linecap="round"/>
<path d="M20.0527 33.1404C20.0527 29.3945 20.0527 27.5216 21.2183 26.3586C22.3787 25.193 24.2516 25.193 28.0001 25.193C31.7486 25.193 33.6189 25.193 34.7819 26.3586C35.9475 27.5216 35.9475 29.3945 35.9475 33.1404C35.9475 36.8862 35.9475 38.7592 34.7819 39.9221C33.6189 41.0878 31.746 41.0878 28.0001 41.0878C24.2542 41.0878 22.3813 41.0878 21.2183 39.9221C20.0527 38.7618 20.0527 36.8889 20.0527 33.1404Z" stroke="#F09021" stroke-width="3"/>
<path d="M35.9473 25.193L38.5964 22.5439M20.0526 25.193L17.4034 22.5439M35.9473 41.0877L38.5964 43.7369M20.0526 41.0877L17.4034 43.7369M9.45605 14.7554C9.45605 11.2983 9.45605 9.57109 10.3515 8.37898C10.5846 8.06992 10.8513 7.79794 11.1515 7.56305C12.3171 6.6491 14.0126 6.6491 17.4034 6.6491H19.5704C20.9135 6.6491 21.5864 6.6491 22.1401 6.8001C22.8802 7.00607 23.553 7.40347 24.0906 7.95226C24.6283 8.50106 25.0117 9.18186 25.2025 9.92607" stroke="#F09021" stroke-width="3" stroke-linecap="round"/>
</svg>
