<svg width="56" height="56" viewBox="0 0 56 56" fill="none" xmlns="http://www.w3.org/2000/svg">
<g clip-path="url(#clip0_1946_122)">
<path d="M27.9689 34.4577C26.1728 34.4577 24.656 33.8379 23.4185 32.5984C22.1789 31.361 21.5591 29.8442 21.5591 28.0483C21.5591 26.2523 22.1789 24.7346 23.4185 23.495C24.6581 22.2555 26.1749 21.6368 27.9689 21.6388C29.7628 21.6409 31.2807 22.2596 32.5224 23.495C33.764 24.7304 34.3828 26.2482 34.3786 28.0483C34.3745 29.8484 33.7557 31.3651 32.5224 32.5984C31.289 33.8317 29.7712 34.4515 27.9689 34.4577ZM27.9689 56L16.4107 44.3833L18.6314 42.1596L27.9875 51.5122L37.325 42.1752L39.5301 44.4394L27.9689 56ZM11.5551 39.6681L0 28.1074L11.6174 16.4907L13.8412 18.7113L4.48498 28.067L13.8225 37.4039L11.5551 39.6681ZM18.6127 13.7656L16.3484 11.5606L27.9097 0L39.527 11.5606L37.3063 13.7812L27.9502 4.42867L18.6127 13.7656ZM44.4418 39.6089L42.218 37.3852L51.5742 28.0296L42.2367 18.6926L44.4387 16.4876L56 28.0483L44.4418 39.6089Z" fill="#F09021"/>
</g>
<defs>
<clipPath id="clip0_1946_122">
<rect width="56" height="56" fill="white"/>
</clipPath>
</defs>
</svg>
