<svg width="240" height="240" viewBox="0 0 240 240" fill="none" xmlns="http://www.w3.org/2000/svg">
<path d="M4.65306 186.042C3.74697 184.472 4.28462 182.466 5.854 181.559L53.8901 153.826C55.4595 152.921 57.4662 153.457 58.3723 155.027C59.2784 156.596 58.7407 158.603 57.1713 159.509L9.13525 187.243C8.61868 187.541 8.05431 187.682 7.49743 187.682C6.364 187.683 5.26103 187.094 4.65306 186.042ZM35.1054 201.714L5.854 218.602C4.28462 219.509 3.74697 221.515 4.65306 223.084C5.26056 224.137 6.36353 224.725 7.49743 224.725C8.05431 224.725 8.61822 224.583 9.13525 224.286L38.3862 207.398C39.9556 206.491 40.4932 204.485 39.5871 202.916C38.6815 201.346 36.6743 200.809 35.1054 201.714ZM7.39806 147.413C8.00556 148.466 9.10853 149.054 10.2424 149.054C10.7993 149.054 11.3637 148.912 11.8802 148.615L41.1312 131.727C42.7006 130.82 43.2382 128.813 42.3321 127.244C41.426 125.675 39.4188 125.138 37.8499 126.044L8.599 142.932C7.02962 143.837 6.49197 145.844 7.39806 147.413ZM90.5037 173.519C89.5976 171.95 87.5904 171.413 86.0215 172.318L56.7706 189.206C55.2012 190.113 54.6635 192.119 55.5696 193.688C56.1771 194.741 57.2801 195.329 58.414 195.329C58.9709 195.329 59.5352 195.187 60.0518 194.89L89.3028 178.002C90.8726 177.095 91.4103 175.088 90.5037 173.519ZM7.4979 113.596C8.05478 113.596 8.61915 113.454 9.13572 113.156L25.0915 103.944C26.6609 103.038 27.1985 101.031 26.2924 99.4621C25.3863 97.8927 23.3792 97.356 21.8102 98.2612L5.854 107.472C4.28462 108.379 3.74697 110.385 4.65306 111.954C5.26103 113.008 6.364 113.596 7.4979 113.596ZM118.153 190.81L70.0151 218.602C68.4457 219.509 67.9081 221.515 68.8142 223.084C69.4217 224.137 70.5246 224.725 71.6585 224.725C72.2154 224.725 72.7798 224.583 73.2963 224.286L121.434 196.493C123.004 195.587 123.541 193.58 122.635 192.011C121.729 190.441 119.722 189.906 118.153 190.81ZM234.361 70.2646C232.297 75.4902 228.125 80.1201 222.615 83.3015L179.444 108.226L175.868 121.256L181.804 117.829C182.557 117.394 183.454 117.276 184.294 117.501C185.134 117.726 185.851 118.277 186.286 119.031L195.825 135.553C196.731 137.122 196.193 139.129 194.624 140.035L166.213 156.437L162.626 169.508C162.398 170.341 161.85 171.05 161.103 171.482L134.784 186.677C134.276 186.97 133.71 187.116 133.144 187.116C132.544 187.116 131.945 186.952 131.416 186.625C130.389 185.989 129.794 184.839 129.868 183.633L132.858 135.123L104.921 151.252C103.815 151.891 102.614 152.215 101.383 152.215C100.842 152.215 100.294 152.152 99.7456 152.026L92.1912 150.281L76.4267 159.382C75.9176 159.676 75.3513 159.822 74.786 159.822C74.1148 159.822 73.4454 159.617 72.8768 159.209C71.8301 158.46 71.3178 157.169 71.5667 155.906L73.5256 145.971L64.9563 143.992C64.0699 143.787 63.3077 143.224 62.8531 142.436L51.4563 122.696C51.0213 121.943 50.9032 121.047 51.1282 120.206C51.3537 119.366 51.9035 118.649 52.6573 118.214L64.6395 111.296L34.3451 92.2959C33.3701 91.6841 32.7865 90.6065 32.8076 89.4557C32.8287 88.3049 33.4512 87.2493 34.4477 86.6737L62.2015 70.6499C62.9787 70.2009 63.9059 70.0902 64.767 70.3438L111.693 84.1293L179.289 45.1031C188.73 39.652 200.128 38.0606 211.383 40.6227C221.365 42.8957 229.861 48.2812 233.554 54.6777C236.221 59.2968 236.507 64.8318 234.361 70.2646ZM189.925 47.5954L195.832 57.8277L213.068 47.8766C212.044 47.5532 210.995 47.2654 209.926 47.0221C205.619 46.041 198.098 45.1063 189.925 47.5954ZM71.0703 107.583L103.841 88.6626L64.2654 77.0366L42.4493 89.632L71.0703 107.583ZM100.072 138.153L113.444 112.53L83.3862 129.884L79.4028 150.086L100.072 138.153ZM179.945 81.6065L141.357 103.885L136.795 177.939L156.655 166.472L179.945 81.6065ZM173.397 130.261L168.685 147.434L188.501 135.993L182.243 125.154L173.397 130.261ZM227.871 57.9595C226.43 55.4638 223.823 53.1074 220.512 51.157L196.272 65.152C195.769 65.4421 195.203 65.5916 194.632 65.5916C194.347 65.5916 194.062 65.5546 193.782 65.4801C192.942 65.2551 192.225 64.7048 191.79 63.951L183.8 50.1126C183.39 50.3282 182.98 50.5509 182.57 50.7871L58.7801 122.256L67.8232 137.919L74.7959 139.529L77.2362 127.152C77.4195 126.224 77.9951 125.419 78.8149 124.945L119.931 101.207C121.195 100.477 122.788 100.67 123.842 101.68C124.895 102.689 125.156 104.273 124.48 105.567L105.448 142.035C105.16 142.589 104.719 143.047 104.179 143.359L100.523 145.47L101.221 145.631C101.401 145.672 101.479 145.661 101.638 145.569L133.341 127.265L134.915 101.721C134.983 100.623 135.597 99.6318 136.549 99.0815L183.582 71.9268C184.735 71.2607 186.175 71.3587 187.228 72.171C188.282 72.9843 188.74 74.3535 188.387 75.637L181.915 99.2207L200.48 88.5023L216.809 79.0748L219.333 77.6174C223.565 75.1738 226.735 71.706 228.257 67.8524C229.653 64.3223 229.515 60.8081 227.871 57.9595ZM180.865 59.2813L172.061 64.3645C170.492 65.271 169.954 67.2777 170.86 68.8466C171.468 69.8995 172.571 70.4877 173.704 70.4877C174.261 70.4877 174.826 70.3457 175.342 70.0481L184.146 64.9649C185.716 64.0584 186.253 62.0516 185.347 60.4827C184.442 58.9129 182.434 58.3766 180.865 59.2813ZM157.369 72.847L148.564 77.9301C146.995 78.8366 146.457 80.8434 147.364 82.4123C147.971 83.4651 149.074 84.0534 150.208 84.0534C150.765 84.0534 151.329 83.9113 151.846 83.6137L160.65 78.5306C162.219 77.624 162.757 75.6173 161.851 74.0484C160.945 72.4785 158.938 71.9418 157.369 72.847ZM133.871 86.413L125.067 91.4962C123.498 92.4027 122.96 94.4095 123.867 95.9784C124.474 97.0312 125.577 97.6195 126.711 97.6195C127.268 97.6195 127.832 97.4774 128.349 97.1798L137.153 92.0966C138.722 91.1901 139.26 89.1834 138.354 87.6145C137.448 86.0441 135.441 85.5079 133.871 86.413Z" fill="url(#paint0_linear_1822_3116)"/>
<defs>
<linearGradient id="paint0_linear_1822_3116" x1="201.914" y1="22.079" x2="2.7012" y2="221.292" gradientUnits="userSpaceOnUse">
<stop stop-color="#E93528"/>
<stop offset="1" stop-color="#F8BC16"/>
</linearGradient>
</defs>
</svg>
