<svg width="240" height="240" viewBox="0 0 240 240" fill="none" xmlns="http://www.w3.org/2000/svg">
<mask id="mask0_1822_3137" style="mask-type:alpha" maskUnits="userSpaceOnUse" x="0" y="0" width="240" height="240">
<path d="M83.2725 200C83.2725 200 81.0906 193.091 77.4543 189.091C66.5452 176.364 37.8179 164.727 27.6361 151.636C17.4543 138.182 7.27246 91.2727 7.27246 91.2727C16.727 90.9091 25.4543 96.7273 28.727 105.455L32.3634 115.636" stroke="black" stroke-width="6" stroke-miterlimit="10" stroke-linecap="round" stroke-linejoin="round"/>
<path d="M71.272 153.455L40.3629 135.636C36.7266 133.455 35.272 128.727 37.4538 125.091C39.272 121.455 43.272 120 47.272 121.455C58.5447 125.455 81.0902 134.182 88.7266 140.364C100.727 150.182 113.09 186.546 113.09 186.546" stroke="black" stroke-width="6" stroke-miterlimit="10" stroke-linecap="round" stroke-linejoin="round"/>
<path d="M156.727 200C156.727 200 158.908 193.091 162.545 189.091C173.454 176.364 202.181 164.727 212.363 151.636C222.545 138.182 232.727 91.2727 232.727 91.2727C223.272 90.9091 214.545 96.7273 211.272 105.455L207.636 115.636" stroke="black" stroke-width="6" stroke-miterlimit="10" stroke-linecap="round" stroke-linejoin="round"/>
<path d="M168.727 153.455L199.636 135.636C203.272 133.455 204.727 128.727 202.545 125.091C200.727 121.455 196.727 120 192.727 121.455C181.454 125.455 158.909 134.182 151.272 140.364C139.272 150.182 127.272 186.546 127.272 186.546" stroke="black" stroke-width="6" stroke-miterlimit="10" stroke-linecap="round" stroke-linejoin="round"/>
<path d="M143.272 87.2728C143.272 100 132.727 110.545 119.999 110.545C107.272 110.545 96.7266 100 96.7266 87.2728C96.7266 74.5455 107.272 52.7273 119.999 52.7273C132.727 52.7273 143.272 74.5455 143.272 87.2728Z" stroke="black" stroke-width="6" stroke-miterlimit="10" stroke-linecap="round" stroke-linejoin="round"/>
<path d="M150.909 70.1819L232.727 57.8182C225.091 66.9091 214.546 73.091 202.909 74.9091L153.818 83.6364" stroke="black" stroke-width="6" stroke-miterlimit="10" stroke-linecap="round" stroke-linejoin="round"/>
<path d="M86.1816 83.6364L37.0906 74.9091C25.4543 73.091 14.9088 66.9091 7.27246 57.8182L89.0907 70.1819" stroke="black" stroke-width="6" stroke-miterlimit="10" stroke-linecap="round" stroke-linejoin="round"/>
<path d="M120 52.7273V40" stroke="black" stroke-width="6" stroke-miterlimit="10" stroke-linecap="round" stroke-linejoin="round"/>
<path d="M132.727 58.5455L145.817 52.7273" stroke="black" stroke-width="6" stroke-miterlimit="10" stroke-linecap="round" stroke-linejoin="round"/>
<path d="M107.273 58.5455L94.1816 52.7273" stroke="black" stroke-width="6" stroke-miterlimit="10" stroke-linecap="round" stroke-linejoin="round"/>
<path d="M114.182 73.4546C114.182 76.3637 126.182 76.3637 126.182 73.4546" stroke="black" stroke-width="6" stroke-miterlimit="10" stroke-linecap="round" stroke-linejoin="round"/>
<path d="M177.818 95.2727C182.035 95.2727 185.454 91.8538 185.454 87.6364C185.454 83.4189 182.035 80 177.818 80C173.601 80 170.182 83.4189 170.182 87.6364C170.182 91.8538 173.601 95.2727 177.818 95.2727Z" stroke="black" stroke-width="6" stroke-miterlimit="10" stroke-linecap="round" stroke-linejoin="round"/>
<path d="M62.1813 95.2727C66.3987 95.2727 69.8177 91.8538 69.8177 87.6364C69.8177 83.4189 66.3987 80 62.1813 80C57.9638 80 54.5449 83.4189 54.5449 87.6364C54.5449 91.8538 57.9638 95.2727 62.1813 95.2727Z" stroke="black" stroke-width="6" stroke-miterlimit="10" stroke-linecap="round" stroke-linejoin="round"/>
</mask>
<g mask="url(#mask0_1822_3137)">
<rect y="4.28577" width="240" height="240" fill="url(#paint0_linear_1822_3137)"/>
</g>
<defs>
<linearGradient id="paint0_linear_1822_3137" x1="204.896" y1="-18.1858" x2="-46.8469" y2="183.25" gradientUnits="userSpaceOnUse">
<stop stop-color="#E93528"/>
<stop offset="1" stop-color="#F8BC16"/>
</linearGradient>
</defs>
</svg>
