<svg width="240" height="240" viewBox="0 0 240 240" fill="none" xmlns="http://www.w3.org/2000/svg">
<mask id="mask0_1822_3148" style="mask-type:alpha" maskUnits="userSpaceOnUse" x="0" y="0" width="240" height="240">
<path d="M61.2072 233.912C55.6744 233.91 50.3686 231.713 46.4536 227.803C42.5386 223.894 40.3342 218.591 40.3239 213.058V47.6756C40.3239 46.8155 40.6656 45.9905 41.2738 45.3823C41.8821 44.7741 42.707 44.4324 43.5672 44.4324C44.4273 44.4324 45.2522 44.7741 45.8605 45.3823C46.4687 45.9905 46.8104 46.8155 46.8104 47.6756V213.058C46.8671 216.84 48.4091 220.447 51.1031 223.101C53.7972 225.755 57.4271 227.242 61.2088 227.242C64.9905 227.242 68.6204 225.755 71.3144 223.101C74.0085 220.447 75.5504 216.84 75.6072 213.058V197.588C75.6072 196.728 75.9489 195.903 76.5571 195.295C77.1653 194.687 77.9902 194.345 78.8504 194.345H207.348V27.7783C207.343 23.9605 205.825 20.3003 203.125 17.6007C200.426 14.9011 196.766 13.3826 192.948 13.3783H24.2471C23.387 13.3783 22.5621 13.0366 21.9538 12.4284C21.3456 11.8202 21.0039 10.9953 21.0039 10.1351C21.0039 9.27493 21.3456 8.45 21.9538 7.84177C22.5621 7.23354 23.387 6.89185 24.2471 6.89185H192.948C198.485 6.89786 203.794 9.10032 207.71 13.016C211.626 16.9317 213.828 22.2407 213.834 27.7783V197.588C213.834 198.448 213.493 199.273 212.884 199.881C212.276 200.49 211.451 200.831 210.591 200.831H82.0936V213.058C82.0825 218.591 79.8773 223.894 75.9618 227.804C72.0464 231.713 66.7402 233.91 61.2072 233.912Z" fill="black"/>
<path d="M209.382 233.919H61.2139C60.3538 233.919 59.5289 233.577 58.9206 232.969C58.3124 232.361 57.9707 231.536 57.9707 230.676C57.9707 229.815 58.3124 228.991 58.9206 228.382C59.5289 227.774 60.3538 227.432 61.2139 227.432C65.0275 227.432 68.6852 225.92 71.3848 223.226C74.0844 220.533 75.6054 216.878 75.6139 213.065V197.595C75.6139 196.734 75.9556 195.909 76.5639 195.301C77.1721 194.693 77.997 194.351 78.8572 194.351H226.989C227.849 194.351 228.674 194.693 229.282 195.301C229.891 195.909 230.232 196.734 230.232 197.595V213.065C230.227 218.594 228.029 223.894 224.12 227.804C220.211 231.714 214.91 233.913 209.382 233.919ZM76.3404 227.432H209.382C213.19 227.428 216.842 225.913 219.535 223.219C222.228 220.526 223.742 216.874 223.746 213.065V200.838H82.1004V213.065C82.1048 218.418 80.0412 223.565 76.3404 227.432Z" fill="black"/>
<path d="M107.088 175.813C106.496 175.813 105.916 175.652 105.409 175.346C104.903 175.04 104.49 174.602 104.214 174.078L99.4728 165.045L89.7626 168.149C89.1702 168.34 88.5355 168.355 87.9343 168.195C87.3331 168.035 86.7908 167.705 86.372 167.244C85.9532 166.784 85.6756 166.213 85.5723 165.6C85.4691 164.986 85.5445 164.356 85.7896 163.784L99.6285 131.374C99.9661 130.583 100.604 129.958 101.403 129.637C102.201 129.316 103.094 129.326 103.885 129.663C104.677 130.001 105.301 130.639 105.622 131.437C105.943 132.236 105.934 133.129 105.596 133.92L94.5399 159.811L100.089 158.04C100.816 157.807 101.602 157.837 102.308 158.126C103.015 158.415 103.597 158.944 103.952 159.619L106.78 165.007L118.644 137.115C118.802 136.712 119.04 136.344 119.343 136.035C119.646 135.725 120.008 135.479 120.408 135.312C120.807 135.144 121.236 135.058 121.669 135.059C122.103 135.061 122.531 135.148 122.93 135.318C123.329 135.487 123.689 135.735 123.991 136.046C124.292 136.357 124.528 136.726 124.685 137.13C124.842 137.533 124.916 137.965 124.903 138.398C124.891 138.831 124.791 139.257 124.611 139.651L110.069 173.838C109.829 174.402 109.434 174.887 108.93 175.236C108.426 175.585 107.833 175.784 107.221 175.81L107.088 175.813Z" fill="black"/>
<path d="M143.65 175.813H143.517C142.903 175.788 142.309 175.59 141.804 175.241C141.299 174.892 140.903 174.406 140.663 173.841L126.162 139.641C125.826 138.849 125.818 137.955 126.141 137.157C126.463 136.359 127.089 135.722 127.881 135.386C128.673 135.05 129.567 135.042 130.365 135.364C131.163 135.686 131.8 136.313 132.136 137.105L143.971 164.997L146.796 159.616C147.151 158.941 147.732 158.413 148.438 158.124C149.144 157.835 149.929 157.804 150.655 158.037L156.198 159.807L145.155 133.988C144.975 133.595 144.875 133.169 144.862 132.737C144.849 132.305 144.923 131.874 145.079 131.47C145.235 131.067 145.47 130.699 145.77 130.387C146.07 130.076 146.43 129.828 146.828 129.658C147.225 129.487 147.653 129.398 148.085 129.396C148.518 129.393 148.947 129.477 149.346 129.643C149.746 129.809 150.108 130.053 150.412 130.361C150.716 130.668 150.955 131.034 151.116 131.436L164.942 163.784C165.186 164.355 165.261 164.984 165.158 165.597C165.055 166.21 164.778 166.78 164.36 167.24C163.942 167.7 163.401 168.03 162.801 168.191C162.201 168.352 161.567 168.338 160.975 168.149L151.265 165.045L146.523 174.078C146.248 174.602 145.835 175.04 145.329 175.346C144.822 175.652 144.242 175.813 143.65 175.813Z" fill="black"/>
<path d="M125.383 143.306C123.621 143.306 121.908 142.717 120.519 141.633L115.346 137.608C115.037 137.382 114.655 137.28 114.275 137.322L107.789 138.224C106.042 138.473 104.261 138.13 102.733 137.248C101.204 136.366 100.015 134.996 99.3564 133.359L96.9013 127.297C96.8303 127.116 96.7236 126.951 96.5877 126.812C96.4518 126.673 96.2894 126.562 96.11 126.487L90.0483 124.031C88.4123 123.371 87.0445 122.182 86.1628 120.654C85.2811 119.125 84.9364 117.346 85.1835 115.599L86.0818 109.113C86.1091 108.923 86.0976 108.731 86.048 108.546C85.9984 108.362 85.9117 108.189 85.7932 108.039L81.7683 102.85C80.6832 101.46 80.0938 99.748 80.0938 97.985C80.0938 96.222 80.6832 94.5096 81.7683 93.1201L85.7867 87.9309C85.905 87.7802 85.9918 87.6071 86.042 87.4222C86.0921 87.2372 86.1046 87.044 86.0786 86.8542L85.1802 80.3677C84.9331 78.6207 85.2779 76.8414 86.1596 75.3131C87.0412 73.7849 88.4091 72.5958 90.0451 71.9352L96.11 69.4769C96.2879 69.4057 96.4495 69.2992 96.5849 69.1637C96.7204 69.0283 96.8269 68.8667 96.8981 68.6888L99.3564 62.6239C100.016 60.9872 101.205 59.6187 102.733 58.7369C104.262 57.855 106.042 57.5108 107.789 57.759L114.275 58.6606C114.465 58.6872 114.659 58.675 114.844 58.6248C115.029 58.5747 115.202 58.4876 115.352 58.3688L120.522 54.3471C121.912 53.2641 123.624 52.676 125.387 52.676C127.149 52.676 128.861 53.2641 130.252 54.3471L135.425 58.372C135.575 58.4902 135.748 58.5768 135.933 58.6264C136.118 58.676 136.312 58.6876 136.501 58.6606L142.988 57.759C144.735 57.5119 146.514 57.8567 148.042 58.7384C149.571 59.62 150.76 60.9879 151.42 62.6239L153.875 68.6888C153.948 68.8671 154.056 69.029 154.192 69.165C154.329 69.3009 154.491 69.4081 154.67 69.4801L160.732 71.9352C162.367 72.5972 163.733 73.7866 164.615 75.3145C165.496 76.8423 165.842 78.6209 165.596 80.3677L164.695 86.8542C164.645 87.2361 164.749 87.6222 164.983 87.9277L169.005 93.1169C170.092 94.5056 170.682 96.2183 170.682 97.9817C170.682 99.7452 170.092 101.458 169.005 102.847L164.98 108.02C164.747 108.326 164.645 108.712 164.695 109.093L165.596 115.58C165.842 117.326 165.496 119.105 164.615 120.633C163.733 122.161 162.367 123.35 160.732 124.012L154.654 126.487C154.475 126.559 154.313 126.667 154.177 126.803C154.041 126.938 153.933 127.1 153.859 127.278L151.407 133.34C150.745 134.975 149.556 136.341 148.028 137.223C146.5 138.104 144.722 138.45 142.975 138.204L136.488 137.303C136.105 137.253 135.718 137.357 135.412 137.591L130.242 141.613C128.857 142.704 127.147 143.3 125.383 143.306ZM114.457 130.823C116.218 130.826 117.928 131.411 119.322 132.487L124.511 136.515C124.763 136.709 125.072 136.815 125.39 136.815C125.708 136.815 126.017 136.709 126.269 136.515L131.439 132.49C132.276 131.842 133.233 131.368 134.256 131.094C135.278 130.821 136.345 130.754 137.393 130.897L143.88 131.796C144.196 131.848 144.521 131.789 144.799 131.629C145.077 131.468 145.291 131.217 145.404 130.917L147.859 124.852C148.26 123.869 148.853 122.976 149.604 122.226C150.355 121.476 151.248 120.883 152.231 120.483L158.296 118.028C158.591 117.908 158.838 117.693 158.998 117.417C159.157 117.141 159.219 116.82 159.175 116.504L158.276 110.017C158.133 108.971 158.199 107.906 158.471 106.885C158.743 105.865 159.216 104.908 159.862 104.073L163.891 98.8834C164.086 98.6327 164.192 98.3239 164.192 98.0061C164.192 97.6882 164.086 97.3795 163.891 97.1288L159.869 91.9396C159.223 91.1067 158.749 90.1536 158.474 89.1358C158.2 88.118 158.13 87.0558 158.27 86.0109L159.168 79.5244C159.213 79.2087 159.15 78.8873 158.991 78.6111C158.832 78.335 158.585 78.1199 158.289 78.0001L152.225 75.5417C151.242 75.1423 150.349 74.5504 149.599 73.8006C148.849 73.0509 148.256 72.1586 147.856 71.1763L145.398 65.1115C145.28 64.814 145.066 64.565 144.789 64.4049C144.512 64.2447 144.19 64.1829 143.873 64.2293L137.387 65.1309C136.339 65.2746 135.274 65.2077 134.252 64.9343C133.231 64.6609 132.274 64.1863 131.439 63.5385L126.249 59.5136C125.998 59.3174 125.689 59.2108 125.37 59.2108C125.052 59.2108 124.743 59.3174 124.492 59.5136L119.302 63.5352C118.465 64.1803 117.509 64.6534 116.488 64.9272C115.467 65.2011 114.402 65.2703 113.354 65.1309L106.868 64.2293C106.552 64.1864 106.231 64.2497 105.955 64.4094C105.679 64.5691 105.464 64.8161 105.343 65.1115L102.885 71.1763C102.485 72.1582 101.893 73.0502 101.143 73.7999C100.394 74.5496 99.5016 75.1418 98.5197 75.5417L92.4548 77.9969C92.1595 78.117 91.9125 78.332 91.7528 78.608C91.5931 78.884 91.5297 79.2052 91.5727 79.5212L92.4743 86.0077C92.6177 87.0562 92.5501 88.1227 92.2755 89.1447C92.0009 90.1667 91.5249 91.1236 90.8754 91.959L86.8862 97.1352C86.69 97.3862 86.5834 97.6956 86.5834 98.0142C86.5834 98.3327 86.69 98.6421 86.8862 98.8931L90.911 104.082C91.5584 104.918 92.0326 105.875 92.3061 106.896C92.5795 107.917 92.6466 108.983 92.5035 110.03L91.6018 116.517C91.5578 116.833 91.6206 117.155 91.7805 117.431C91.9403 117.707 92.188 117.922 92.484 118.041L98.5489 120.5C99.5305 120.9 100.422 121.492 101.172 122.242C101.922 122.992 102.514 123.883 102.914 124.865L105.373 130.933C105.493 131.227 105.708 131.473 105.983 131.632C106.258 131.791 106.579 131.854 106.894 131.812L113.38 130.914C113.737 130.859 114.096 130.829 114.457 130.823Z" fill="black"/>
<path d="M125.383 143.306C123.621 143.306 121.908 142.717 120.519 141.633L115.346 137.608C115.037 137.382 114.655 137.28 114.275 137.322L107.789 138.224C106.042 138.473 104.261 138.13 102.733 137.248C101.204 136.366 100.015 134.996 99.3564 133.359L96.9013 127.297C96.8303 127.116 96.7236 126.951 96.5877 126.812C96.4518 126.673 96.2894 126.562 96.11 126.487L90.0483 124.031C88.4123 123.371 87.0445 122.182 86.1628 120.654C85.2811 119.125 84.9364 117.346 85.1835 115.599L86.0818 109.113C86.1091 108.923 86.0976 108.731 86.048 108.546C85.9984 108.362 85.9117 108.189 85.7932 108.039L81.7683 102.85C80.6832 101.46 80.0938 99.748 80.0938 97.985C80.0938 96.222 80.6832 94.5096 81.7683 93.1201L85.7867 87.9309C85.905 87.7802 85.9918 87.6071 86.042 87.4222C86.0921 87.2372 86.1046 87.044 86.0786 86.8542L85.1802 80.3677C84.9331 78.6207 85.2779 76.8414 86.1596 75.3131C87.0412 73.7849 88.4091 72.5958 90.0451 71.9352L96.11 69.4769C96.2879 69.4057 96.4495 69.2992 96.5849 69.1637C96.7204 69.0283 96.8269 68.8667 96.8981 68.6888L99.3564 62.6239C100.016 60.9872 101.205 59.6187 102.733 58.7369C104.262 57.855 106.042 57.5108 107.789 57.759L114.275 58.6606C114.465 58.6872 114.659 58.675 114.844 58.6248C115.029 58.5747 115.202 58.4876 115.352 58.3688L120.522 54.3471C121.912 53.2641 123.624 52.676 125.387 52.676C127.149 52.676 128.861 53.2641 130.252 54.3471L135.425 58.372C135.575 58.4902 135.748 58.5768 135.933 58.6264C136.118 58.676 136.312 58.6876 136.501 58.6606L142.988 57.759C144.735 57.5119 146.514 57.8567 148.042 58.7384C149.571 59.62 150.76 60.9879 151.42 62.6239L153.875 68.6888C153.948 68.8671 154.056 69.029 154.192 69.165C154.329 69.3009 154.491 69.4081 154.67 69.4801L160.732 71.9352C162.367 72.5972 163.733 73.7866 164.615 75.3145C165.496 76.8423 165.842 78.6209 165.596 80.3677L164.695 86.8542C164.645 87.2361 164.749 87.6222 164.983 87.9277L169.005 93.1169C170.092 94.5056 170.682 96.2183 170.682 97.9817C170.682 99.7452 170.092 101.458 169.005 102.847L164.98 108.02C164.747 108.326 164.645 108.712 164.695 109.093L165.596 115.58C165.842 117.326 165.496 119.105 164.615 120.633C163.733 122.161 162.367 123.35 160.732 124.012L154.654 126.487C154.475 126.559 154.313 126.667 154.177 126.803C154.041 126.938 153.933 127.1 153.859 127.278L151.407 133.34C150.745 134.975 149.556 136.341 148.028 137.223C146.5 138.104 144.722 138.45 142.975 138.204L136.488 137.303C136.105 137.253 135.718 137.357 135.412 137.591L130.242 141.613C128.857 142.704 127.147 143.3 125.383 143.306ZM114.457 130.823C116.218 130.826 117.928 131.411 119.322 132.487L124.511 136.515C124.763 136.709 125.072 136.815 125.39 136.815C125.708 136.815 126.017 136.709 126.269 136.515L131.439 132.49C132.276 131.842 133.233 131.368 134.256 131.094C135.278 130.821 136.345 130.754 137.393 130.897L143.88 131.796C144.196 131.848 144.521 131.789 144.799 131.629C145.077 131.468 145.291 131.217 145.404 130.917L147.859 124.852C148.26 123.869 148.853 122.976 149.604 122.226C150.355 121.476 151.248 120.883 152.231 120.483L158.296 118.028C158.591 117.908 158.838 117.693 158.998 117.417C159.157 117.141 159.219 116.82 159.175 116.504L158.276 110.017C158.133 108.971 158.199 107.906 158.471 106.885C158.743 105.865 159.216 104.908 159.862 104.073L163.891 98.8834C164.086 98.6327 164.192 98.3239 164.192 98.0061C164.192 97.6882 164.086 97.3795 163.891 97.1288L159.869 91.9396C159.223 91.1067 158.749 90.1536 158.474 89.1358C158.2 88.118 158.13 87.0558 158.27 86.0109L159.168 79.5244C159.213 79.2087 159.15 78.8873 158.991 78.6111C158.832 78.335 158.585 78.1199 158.289 78.0001L152.225 75.5417C151.242 75.1423 150.349 74.5504 149.599 73.8006C148.849 73.0509 148.256 72.1586 147.856 71.1763L145.398 65.1115C145.28 64.814 145.066 64.565 144.789 64.4049C144.512 64.2447 144.19 64.1829 143.873 64.2293L137.387 65.1309C136.339 65.2746 135.274 65.2077 134.252 64.9343C133.231 64.6609 132.274 64.1863 131.439 63.5385L126.249 59.5136C125.998 59.3174 125.689 59.2108 125.37 59.2108C125.052 59.2108 124.743 59.3174 124.492 59.5136L119.302 63.5352C118.465 64.1803 117.509 64.6534 116.488 64.9272C115.467 65.2011 114.402 65.2703 113.354 65.1309L106.868 64.2293C106.552 64.1864 106.231 64.2497 105.955 64.4094C105.679 64.5691 105.464 64.8161 105.343 65.1115L102.885 71.1763C102.485 72.1582 101.893 73.0502 101.143 73.7999C100.394 74.5496 99.5016 75.1418 98.5197 75.5417L92.4548 77.9969C92.1595 78.117 91.9125 78.332 91.7528 78.608C91.5931 78.884 91.5297 79.2052 91.5727 79.5212L92.4743 86.0077C92.6177 87.0562 92.5501 88.1227 92.2755 89.1447C92.0009 90.1667 91.5249 91.1236 90.8754 91.959L86.8862 97.1352C86.69 97.3862 86.5834 97.6956 86.5834 98.0142C86.5834 98.3327 86.69 98.6421 86.8862 98.8931L90.911 104.082C91.5584 104.918 92.0326 105.875 92.3061 106.896C92.5795 107.917 92.6466 108.983 92.5035 110.03L91.6018 116.517C91.5578 116.833 91.6206 117.155 91.7805 117.431C91.9403 117.707 92.188 117.922 92.484 118.041L98.5489 120.5C99.5305 120.9 100.422 121.492 101.172 122.242C101.922 122.992 102.514 123.883 102.914 124.865L105.373 130.933C105.493 131.227 105.708 131.473 105.983 131.632C106.258 131.791 106.579 131.854 106.894 131.812L113.38 130.914C113.737 130.859 114.096 130.829 114.457 130.823Z" fill="black"/>
<path d="M113.877 118.962C113.405 118.962 112.939 118.858 112.511 118.659C112.083 118.46 111.703 118.17 111.399 117.809C111.095 117.448 110.873 117.024 110.749 116.569C110.626 116.113 110.603 115.636 110.683 115.171L112.59 104.04L104.504 96.1556C104.076 95.7325 103.774 95.1987 103.632 94.6139C103.491 94.0291 103.514 93.4163 103.701 92.8442C103.887 92.272 104.229 91.763 104.688 91.3741C105.148 90.9852 105.706 90.7317 106.301 90.642L117.477 89.0204L122.475 78.895C122.773 78.3894 123.199 77.9703 123.708 77.6791C124.218 77.388 124.795 77.2349 125.383 77.2349C125.97 77.2349 126.547 77.388 127.057 77.6791C127.567 77.9703 127.992 78.3894 128.29 78.895L133.298 89.001L144.471 90.6226C145.07 90.7091 145.633 90.9616 146.096 91.3516C146.559 91.7416 146.904 92.2534 147.092 92.8292C147.279 93.405 147.301 94.0218 147.156 94.6096C147.011 95.1975 146.704 95.733 146.271 96.1556L138.163 104.04L140.07 115.171C140.171 115.767 140.104 116.379 139.877 116.939C139.649 117.499 139.269 117.984 138.78 118.34C138.29 118.695 137.712 118.907 137.109 118.951C136.506 118.995 135.902 118.87 135.367 118.589L125.368 113.335L115.376 118.589C114.913 118.832 114.399 118.96 113.877 118.962ZM125.381 106.427C125.906 106.427 126.424 106.555 126.889 106.8L132.581 109.793L131.494 103.459C131.405 102.941 131.444 102.409 131.606 101.909C131.768 101.409 132.049 100.956 132.425 100.589L137.031 96.1037L130.671 95.1793C130.15 95.1038 129.656 94.9028 129.231 94.5937C128.805 94.2847 128.461 93.8768 128.229 93.4053L125.381 87.6388L122.537 93.4053C122.304 93.8774 121.961 94.2859 121.535 94.5956C121.11 94.9052 120.615 95.1067 120.094 95.1826L113.734 96.1069L118.337 100.592C118.713 100.959 118.994 101.413 119.156 101.913C119.318 102.413 119.356 102.945 119.267 103.463L118.184 109.8L123.87 106.806C124.336 106.561 124.854 106.43 125.381 106.427Z" fill="black"/>
<path d="M43.6183 50.9188H8.33504C7.47488 50.9188 6.64995 50.5771 6.04172 49.9689C5.43349 49.3607 5.0918 48.5357 5.0918 47.6756V27.7459C5.16026 22.2519 7.39076 17.0062 11.3 13.1454C15.2092 9.28459 20.4823 7.11963 25.9767 7.11963C31.471 7.11963 36.7441 9.28459 40.6533 13.1454C44.5626 17.0062 46.7931 22.2519 46.8615 27.7459V47.6756C46.8615 48.5357 46.5198 49.3607 45.9116 49.9689C45.3034 50.5771 44.4785 50.9188 43.6183 50.9188ZM11.5783 44.4323H40.375V27.7459C40.3183 23.9646 38.7764 20.3574 36.0823 17.7035C33.3883 15.0496 29.7584 13.562 25.9767 13.562C22.195 13.562 18.5651 15.0496 15.871 17.7035C13.177 20.3574 11.635 23.9646 11.5783 27.7459V44.4323Z" fill="black"/>
</mask>
<g mask="url(#mask0_1822_3148)">
<rect y="8.57153" width="240" height="240" fill="url(#paint0_linear_1822_3148)"/>
</g>
<defs>
<linearGradient id="paint0_linear_1822_3148" x1="204.896" y1="-13.9" x2="-46.8469" y2="187.536" gradientUnits="userSpaceOnUse">
<stop stop-color="#E93528"/>
<stop offset="1" stop-color="#F8BC16"/>
</linearGradient>
</defs>
</svg>
