<svg width="57" height="56" viewBox="0 0 57 56" fill="none" xmlns="http://www.w3.org/2000/svg">
<g id="fi_1329791" clip-path="url(#clip0_1863_486)">
<path id="Vector" d="M53.9246 54.3596H52.9915V20.1094C52.9915 19.6565 52.624 19.2891 52.1711 19.2891H43.4032C42.9503 19.2891 42.5829 19.6565 42.5829 20.1094V21.8628C42.5829 22.3157 42.9503 22.6831 43.4032 22.6831C43.8565 22.6831 44.2235 22.3157 44.2235 21.8628V20.9297H51.3508V54.3596H44.2235V25.3701C44.2235 24.9172 43.8565 24.5497 43.4032 24.5497C42.9503 24.5497 42.5829 24.9172 42.5829 25.3701V54.3596H39.84V28.8769C39.84 28.424 39.4725 28.0566 39.0197 28.0566H30.2517C29.7988 28.0566 29.4314 28.424 29.4314 28.8769V54.3596H26.6885V37.6444C26.6885 37.1915 26.321 36.8241 25.8682 36.8241H17.1002C16.6473 36.8241 16.2799 37.1915 16.2799 37.6444V54.3596H13.537V51.6726C13.537 51.2197 13.1696 50.8523 12.7167 50.8523C12.2634 50.8523 11.8964 51.2197 11.8964 51.6726V54.3596H4.76904V47.2327H11.8959V48.1653C11.8959 48.6187 12.2634 48.9857 12.7162 48.9857C13.1696 48.9857 13.5366 48.6187 13.5366 48.1653V46.4124C13.5366 45.959 13.1696 45.592 12.7162 45.592H3.94873C3.49585 45.592 3.12842 45.959 3.12842 46.4124V54.3596H2.19531C1.74243 54.3596 1.375 54.727 1.375 55.1799C1.375 55.6328 1.74243 56.0002 2.19531 56.0002H53.9246C54.3774 56.0002 54.7449 55.6328 54.7449 55.1799C54.7449 54.727 54.3774 54.3596 53.9246 54.3596ZM31.072 29.6972H38.1989V54.3596H31.072V29.6972ZM17.9205 38.4647H25.0479V54.3596H17.9205V38.4647Z" fill="#F09021"/>
<path id="Vector_2" d="M54.8016 1.75342H52.1147V0.820312C52.1147 0.367432 51.7477 0 51.2944 0H44.2803C43.8274 0 43.46 0.367432 43.46 0.820312V1.75342H40.7734C40.3201 1.75342 39.9531 2.12085 39.9531 2.57373V3.45044C39.9531 5.57941 41.4985 7.35248 43.5262 7.71051C43.8342 9.47333 45.2138 10.8717 46.9672 11.2071V15.7816H45.1574C44.7041 15.7816 44.3371 16.149 44.3371 16.6019C44.3371 17.0552 44.7041 17.4222 45.1574 17.4222H50.4181C50.871 17.4222 51.2384 17.0552 51.2384 16.6019C51.2384 16.149 50.871 15.7816 50.4181 15.7816H48.6078V11.2071C50.3613 10.8717 51.7408 9.47333 52.0493 7.71051C54.0766 7.35248 55.6219 5.57941 55.6219 3.45044V2.57373C55.6219 2.12085 55.2545 1.75342 54.8016 1.75342ZM41.5938 3.45044V3.39404H43.46V6.00879C42.3786 5.66144 41.5938 4.64587 41.5938 3.45044ZM50.4741 6.96454C50.4741 8.44238 49.2718 9.64423 47.7944 9.64423H47.7803C46.3029 9.64423 45.1006 8.44238 45.1006 6.96454V1.64062H50.4741V6.96454ZM53.9813 3.45044C53.9813 4.64587 53.196 5.66101 52.1147 6.00879V3.39404H53.9813V3.45044Z" fill="#F09021"/>
<path id="Vector_3" d="M3.94914 37.8072C4.10551 37.8072 4.26359 37.7624 4.4033 37.6692L38.8752 14.6881L37.0205 18.3077C36.8142 18.7111 36.9736 19.2054 37.3764 19.4117C37.4965 19.4733 37.6242 19.5023 37.7499 19.5023C38.0481 19.5023 38.3356 19.3391 38.4809 19.0558L41.704 12.7646C41.8382 12.5027 41.8219 12.1887 41.6609 11.9422C41.5002 11.6957 41.2195 11.5543 40.9256 11.5718L33.8692 11.9888C33.4172 12.0153 33.0719 12.4036 33.0989 12.8561C33.1253 13.3081 33.5129 13.652 33.9662 13.6264L37.8545 13.3965L3.49327 36.3042C3.11644 36.5554 3.01433 37.0647 3.26597 37.4415C3.42406 37.6786 3.68382 37.8072 3.94914 37.8072Z" fill="#F09021"/>
</g>
<defs>
<clipPath id="clip0_1863_486">
<rect width="56" height="56" fill="white" transform="translate(0.5)"/>
</clipPath>
</defs>
</svg>
