<svg width="57" height="56" viewBox="0 0 57 56" fill="none" xmlns="http://www.w3.org/2000/svg">
<g id="fi_1687055" clip-path="url(#clip0_1863_623)">
<path id="Vector" d="M28.4998 15.0234C31.4136 15.0234 34.1667 15.9672 36.4611 17.7527C36.8187 18.0312 37.3339 17.9667 37.6121 17.6091C37.8906 17.2515 37.8261 16.7363 37.4685 16.4581C34.8832 14.4462 31.7819 13.3828 28.4998 13.3828C20.4398 13.3828 13.8828 19.9402 13.8828 28.0002C13.8828 35.0245 18.8632 40.9064 25.4778 42.3027C25.4962 42.3069 25.515 42.3112 25.5338 42.3146C27.4812 42.7175 29.5102 42.7192 31.4657 42.3146C31.4845 42.3112 31.5033 42.3074 31.5217 42.3027C38.1363 40.9064 43.1171 35.0245 43.1171 28.0002C43.1171 24.8702 42.1409 21.8846 40.2943 19.366C40.0264 19.0007 39.5133 18.9216 39.148 19.1895C38.7823 19.4574 38.7032 19.9709 38.9711 20.3362C40.61 22.5712 41.4765 25.2214 41.4765 28.0002C41.4765 33.8915 37.5296 38.8779 32.1416 40.4557V32.5012C32.9175 32.1167 33.6361 31.6087 34.271 30.9828C38.0598 27.2461 37.3766 20.8989 32.756 18.0975C32.3129 17.8287 31.7575 17.8198 31.3063 18.074C30.8556 18.3278 30.5757 18.8067 30.5757 19.3237V24.0563L28.4472 26.0908L26.4238 24.0674V19.3237C26.4238 18.8067 26.1439 18.3278 25.6932 18.074C25.242 17.8198 24.6862 17.8292 24.2427 18.0979C19.6989 20.8532 18.8636 27.2158 22.7802 31.0182C23.4019 31.6219 24.1034 32.1146 24.8579 32.491V35.2403C24.8579 35.6932 25.2253 36.0606 25.6782 36.0606C26.1315 36.0606 26.4985 35.6932 26.4985 35.2403V33.1011C27.8209 33.4348 29.2021 33.4288 30.501 33.1058V40.8223C30.1126 40.8825 29.7187 40.9252 29.3201 40.95V36.3336C29.3201 35.8807 28.9526 35.5133 28.4998 35.5133C28.0469 35.5133 27.6794 35.8807 27.6794 36.3336V40.95C27.2808 40.9248 26.8869 40.8825 26.4985 40.8223V39.0684C26.4985 38.6151 26.1315 38.2481 25.6782 38.2481C25.2253 38.2481 24.8579 38.6151 24.8579 39.0684V40.4557C19.4699 38.8779 15.523 33.8915 15.523 28.0002C15.523 20.8447 21.3442 15.0234 28.4998 15.0234ZM26.0717 31.2443C26.0192 31.2156 25.9632 31.1934 25.9047 31.1763C23.6475 30.2069 22.0368 28.0113 21.927 25.4175C21.83 23.1377 22.9169 20.9805 24.7831 19.7009V24.1661C24.7831 24.5408 24.9288 24.8928 25.1937 25.1577L27.4521 27.4157C27.9866 27.9506 28.8659 27.9604 29.4119 27.4379L31.7831 25.1718C32.0583 24.9086 32.2159 24.5391 32.2159 24.1584V19.7005C34.0155 20.9301 35.0785 22.9335 35.0785 25.1299C35.0785 27.9156 33.3669 30.2291 31.035 31.2041C31.009 31.2139 30.9833 31.2246 30.9586 31.237C29.4589 31.8416 27.6957 31.8898 26.0717 31.2443Z" fill="#F09021"/>
<path id="Vector_2" d="M54.4142 21.8177L49.0356 21.1683C48.8856 21.1504 48.76 21.0466 48.7075 20.8975C48.449 20.1622 48.1452 19.4316 47.8051 18.7249C47.7397 18.5891 47.7543 18.4335 47.8436 18.3199L51.1957 14.0474C51.9349 13.1049 51.8537 11.7557 51.0069 10.9084L45.5916 5.4931C44.7443 4.6463 43.3951 4.56512 42.4526 5.30426L38.1801 8.65686C38.066 8.74573 37.9109 8.76068 37.7751 8.69489C37.0688 8.3548 36.3378 8.05103 35.603 7.79254C35.4534 7.73999 35.3496 7.61438 35.3317 7.46442L34.6823 2.08582C34.5387 0.89679 33.527 0 32.3294 0H24.6706C23.473 0 22.4613 0.89679 22.3177 2.08582L21.6683 7.46399C21.6504 7.61438 21.5466 7.73999 21.3975 7.79254C20.6622 8.05103 19.9312 8.3548 19.2253 8.69489C19.0891 8.76025 18.934 8.74573 18.8203 8.65643L14.5474 5.30426C13.6049 4.5647 12.2557 4.6463 11.4089 5.4931L10.0545 6.84747C9.73407 7.16791 9.73407 7.68744 10.0545 8.00745C10.3749 8.32788 10.894 8.32788 11.2145 8.00745L12.5688 6.6535C12.8295 6.39288 13.2443 6.36768 13.5349 6.5954L17.8073 9.94757C18.417 10.4257 19.233 10.5124 19.9371 10.1732C20.5891 9.85913 21.2633 9.57886 21.9418 9.34045C22.6843 9.07898 23.2039 8.43555 23.2974 7.66095L23.9464 2.28235C23.9908 1.91663 24.3019 1.64062 24.6706 1.64062H32.3294C32.6977 1.64062 33.0092 1.91663 33.0536 2.28235L33.7026 7.66095C33.7961 8.43555 34.3157 9.07898 35.0582 9.34003C35.7367 9.57886 36.4109 9.85913 37.0629 10.1732C37.767 10.512 38.583 10.4257 39.1927 9.94757L43.4651 6.5954C43.7552 6.36768 44.1705 6.39288 44.4312 6.6535L49.8465 12.0688C50.1071 12.3295 50.1323 12.7448 49.9046 13.0349L46.5524 17.3073C46.0743 17.917 45.988 18.733 46.3268 19.4371C46.6409 20.0891 46.9211 20.7637 47.16 21.4418C47.421 22.1843 48.0649 22.7039 48.8391 22.7974L54.2172 23.4464C54.5834 23.4908 54.8594 23.8019 54.8594 24.1706V31.8294C54.8594 32.1981 54.5834 32.5092 54.2177 32.5536L48.8391 33.203C48.0649 33.2961 47.421 33.8157 47.16 34.5582C46.9211 35.2367 46.6409 35.9109 46.3268 36.5629C45.988 37.267 46.0743 38.083 46.5524 38.6927L49.9046 42.9656C50.1323 43.2557 50.1071 43.671 49.8465 43.9316L44.4312 49.3469C44.1705 49.6075 43.7552 49.6323 43.4651 49.405L39.1927 46.0529C38.583 45.5743 37.767 45.488 37.0629 45.8273C36.4109 46.1413 35.7367 46.4216 35.0582 46.66C34.3157 46.9214 33.7961 47.5649 33.7026 48.3395L33.0536 53.7177C33.0092 54.0838 32.6981 54.3598 32.3294 54.3598H24.6706C24.3019 54.3598 23.9908 54.0838 23.9464 53.7177L23.2974 48.3395C23.2039 47.5649 22.6843 46.9214 21.9418 46.66C21.2633 46.4216 20.5891 46.1413 19.9371 45.8273C19.233 45.488 18.417 45.5743 17.8073 46.0529L13.5349 49.4046C13.2448 49.6319 12.8295 49.6071 12.5688 49.3465L7.1535 43.9312C6.89288 43.6705 6.86768 43.2552 7.0954 42.9651L10.4476 38.6927C10.9257 38.083 11.012 37.267 10.6732 36.5629C10.3591 35.9109 10.0789 35.2363 9.84003 34.5582C9.57898 33.8157 8.93512 33.2961 8.16095 33.2026L2.78278 32.5536C2.41663 32.5092 2.14062 32.1981 2.14062 31.8294V24.1706C2.14062 23.8019 2.41663 23.4908 2.78235 23.4464L8.16095 22.797C8.93512 22.7039 9.57898 22.1843 9.84003 21.4418C10.0789 20.7633 10.3591 20.0891 10.6732 19.4371C11.012 18.733 10.9257 17.917 10.4476 17.3073L7.0954 13.0349C6.86768 12.7448 6.89288 12.3295 7.1535 12.0688L8.50787 10.7145C8.82788 10.394 8.82788 9.87451 8.50787 9.5545C8.18744 9.23407 7.66791 9.23407 7.34747 9.5545L5.99353 10.9089C5.1463 11.7557 5.06512 13.1049 5.80469 14.0474L9.15686 18.3203C9.24615 18.434 9.26068 18.5891 9.19489 18.7253C8.8548 19.4316 8.55103 20.1626 8.29254 20.897C8.23999 21.0466 8.11438 21.1504 7.96442 21.1683L2.58582 21.8177C1.39679 21.9613 0.5 22.973 0.5 24.1706V31.8294C0.5 33.027 1.39679 34.0387 2.58582 34.1823L7.96442 34.8317C8.11438 34.8496 8.23999 34.9534 8.29254 35.1025C8.55103 35.8374 8.8548 36.5684 9.19489 37.2747C9.26068 37.4109 9.24573 37.566 9.15686 37.6797L5.80469 41.9526C5.06512 42.8951 5.1463 44.2443 5.99353 45.0911L11.4089 50.5065C12.2557 51.3537 13.6049 51.4349 14.5474 50.6953L18.8203 47.3431C18.934 47.2538 19.0891 47.2393 19.2253 47.3051C19.9312 47.6452 20.6622 47.9485 21.3975 48.2075C21.5466 48.2596 21.6504 48.3856 21.6683 48.5356L22.3177 53.9138C22.4613 55.1032 23.473 56 24.6706 56H32.3294C33.527 56 34.5387 55.1032 34.6823 53.9142L35.3317 48.5356C35.3496 48.3856 35.4534 48.26 35.6025 48.2075C36.3378 47.949 37.0688 47.6452 37.7747 47.3051C37.9109 47.2393 38.066 47.2543 38.1797 47.3436L42.4526 50.6957C43.3947 51.4349 44.7443 51.3537 45.5911 50.5069L51.0065 45.0916C51.8537 44.2443 51.9349 42.8951 51.1953 41.9526L47.8431 37.6801C47.7538 37.5665 47.7393 37.4109 47.8051 37.2751C48.1452 36.5684 48.4485 35.8378 48.7075 35.103C48.7596 34.9539 48.8856 34.85 49.0356 34.8317L54.4138 34.1823C55.6032 34.0387 56.5 33.027 56.5 31.8294V24.1706C56.5 22.973 55.6032 21.9613 54.4142 21.8177Z" fill="#F09021"/>
</g>
<defs>
<clipPath id="clip0_1863_623">
<rect width="56" height="56" fill="white" transform="translate(0.5)"/>
</clipPath>
</defs>
</svg>
