<svg width="57" height="56" viewBox="0 0 57 56" fill="none" xmlns="http://www.w3.org/2000/svg">
<g id="fi_5545080" clip-path="url(#clip0_1863_2284)">
<g id="Group">
<g id="Group_2">
<g id="Group_3">
<path id="Vector" d="M24.4474 22.0773C22.5454 22.0774 21.7215 20.704 21.3448 19.8012C19.7174 20.5965 18.3205 20.9255 18.1978 20.9535C17.8755 21.0268 17.5554 20.8256 17.4819 20.5037C17.4084 20.1818 17.6099 19.8612 17.9318 19.7878C17.9712 19.7786 19.3425 19.452 20.9066 18.6737C19.9889 16.2121 20.9857 13.4408 23.2955 12.217C24.9353 11.2338 27.0218 13.049 26.3375 14.8146C25.6345 16.845 24.0154 18.2679 22.4044 19.2289C22.807 20.2556 23.4588 21.1831 25.23 20.7874C25.923 20.6327 26.4424 20.0546 26.4931 19.3816C26.4139 18.7425 27.3141 18.4308 27.6196 19.0095C27.9323 19.577 28.8142 20.7337 29.5349 20.6785C30.0885 20.6369 30.6697 19.8652 31.1715 18.5057C31.3232 18.0492 31.9957 17.9789 32.2383 18.3943C32.4789 18.7736 33.3288 19.8447 34.0458 19.7813C34.492 19.742 34.9525 19.197 35.3423 18.2466C35.4917 17.8501 36.0561 17.7479 36.3344 18.0677C36.8009 18.5322 37.6947 19.0167 38.4717 18.0114C38.6811 17.756 39.0576 17.7187 39.3131 17.9279C39.5685 18.1372 39.6058 18.514 39.3966 18.7694C38.8513 19.4346 38.219 19.7825 37.5172 19.8033C36.9582 19.8209 36.4743 19.6223 36.1152 19.4047C35.58 20.3793 34.9201 20.906 34.1475 20.9728C33.2235 21.0532 32.4197 20.4367 31.8883 19.8744C31.2616 21.1496 30.5152 21.8051 29.6217 21.871C28.6677 21.9407 27.8586 21.2757 27.3114 20.6411C26.7818 21.6175 25.5198 22.1106 24.4474 22.0773ZM23.855 13.2737C22.097 14.1144 21.3643 16.2257 21.9675 18.0851C23.328 17.2433 24.644 16.0506 25.2074 14.4234C25.4282 13.7246 24.6298 12.9031 23.855 13.2737Z" fill="#F09021"/>
</g>
<g id="Group_4">
<path id="Vector_2" d="M39.6196 8.36615H18.2229C17.8927 8.36615 17.625 8.09842 17.625 7.76828C17.625 7.43814 17.8927 7.17041 18.2229 7.17041H39.6196C39.9498 7.17041 40.2175 7.43814 40.2175 7.76828C40.2175 8.09842 39.9498 8.36615 39.6196 8.36615Z" fill="#F09021"/>
</g>
<g id="Group_5">
<g id="Group_6">
<path id="Vector_3" d="M49.664 0.597656H49.6367C49.6457 0.597656 49.6544 0.598254 49.6634 0.598374L49.664 0.597656Z" fill="#F09021"/>
</g>
</g>
</g>
<g id="Group_7">
<g id="Group_8">
<path id="Vector_4" d="M6.17442 34.6959C6.70688 35.0547 6.8475 35.7768 6.48842 36.3087C6.12934 36.8406 5.40663 36.9808 4.87417 36.622C4.34171 36.2631 4.20109 35.541 4.56017 35.0092C4.91925 34.4773 5.64196 34.337 6.17442 34.6959Z" fill="#F09021"/>
</g>
<g id="Group_9">
<path id="Vector_5" d="M50.939 35.1593C50.3829 35.4801 50.1923 36.1906 50.5134 36.7463C50.8345 37.3019 51.5456 37.4923 52.1019 37.1715C52.6582 36.8506 52.8486 36.1401 52.5276 35.5845C52.2065 35.0288 51.4952 34.8385 50.939 35.1593Z" fill="#F09021"/>
</g>
<path id="Vector_6" d="M56.1995 35.8976L48.2316 22.1955C47.6616 21.215 46.3984 20.8791 45.4162 21.4459L41.7796 23.5451C41.0123 23.9721 40.598 24.9181 40.7937 25.7692L37.6908 26.5524C36.8812 26.7568 36.0382 26.7153 35.2527 26.4325L30.9305 24.8762C29.3905 24.3216 27.7059 24.493 26.3088 25.3461L22.2842 27.8043C21.2952 27.4034 20.3623 27.1496 19.5084 27.0526C18.5824 26.9475 17.6805 26.6796 16.8649 26.2757C17.2597 25.3978 16.9336 24.275 16.1215 23.7489L12.6401 21.4011C11.6998 20.7668 10.4164 21.0139 9.77928 21.9522L0.875819 35.0646C0.231675 35.9723 0.494737 37.3341 1.43004 37.9373L4.91096 40.2849C5.62505 40.7681 6.56203 40.7471 7.25604 40.2578C7.90556 41.066 8.66019 41.7718 9.51156 42.3641L8.80476 43.3736C7.93594 44.6144 8.23858 46.3306 9.47939 47.1993C9.95793 47.5344 10.5071 47.6952 11.0512 47.6952C11.117 47.6952 11.1826 47.6921 11.248 47.6874C11.031 48.7305 11.4341 49.852 12.3608 50.5008C13.0752 50.9982 13.9389 51.119 14.7445 50.8744C14.7521 50.9774 14.7649 51.0806 14.7843 51.1838C14.9216 51.9159 15.3383 52.5472 15.9571 52.9609C16.9015 53.6154 18.1632 53.595 19.0926 52.9483C19.2736 53.5202 19.6324 54.0156 20.1321 54.3655C21.3589 55.2284 23.084 54.9399 23.958 53.6909L24.2248 53.3099L27.0285 55.4523C28.1882 56.363 29.8062 56.1011 30.7487 54.9391C31.1569 54.435 31.3695 53.8346 31.3962 53.2309C32.5771 54.1135 34.3861 53.8707 35.2924 52.704C35.6749 52.2317 35.8932 51.6634 35.9268 51.0683L35.9718 51.1047C37.2 52.0995 39.0086 51.9093 40.0034 50.6812C40.4485 50.1314 40.6563 49.4654 40.64 48.808C41.7522 49.1757 43.0269 48.8441 43.8072 47.8811C44.7947 46.6625 44.6219 44.8489 43.4266 43.8424L29.0019 31.4492C28.8474 31.3165 28.636 31.2716 28.4409 31.3299L25.1151 32.3244C25.0001 32.3588 24.898 32.4271 24.8223 32.5205L22.66 35.1842C21.304 36.8549 18.9267 37.3613 17.0076 36.388C16.688 36.2362 16.5788 35.7953 16.7906 35.512L20.2549 30.6162C20.3964 30.4163 20.5741 30.2502 20.7831 30.1226L26.9324 26.3667C28.0185 25.7033 29.3282 25.57 30.5257 26.0013L34.8479 27.5575C35.8582 27.9213 36.9426 27.9746 37.9838 27.7119L41.3168 26.8706L45.0218 33.2414L48.8231 39.778C48.0773 40.6307 46.925 41.6909 45.343 42.4402C45.0446 42.5815 44.9172 42.938 45.0586 43.2364C45.2004 43.5379 45.5632 43.6609 45.8548 43.5209C47.2371 42.8662 48.5162 41.904 49.5867 40.7186C50.2376 41.1789 51.1109 41.2294 51.8104 40.8233L55.4464 38.7244C56.4216 38.1883 56.7788 36.8478 56.1995 35.8976ZM5.57961 39.2935L2.0987 36.946C1.70482 36.692 1.59374 36.1187 1.86505 35.7364L10.7685 22.6239C11.0379 22.2266 11.5808 22.1277 11.9714 22.3923L15.4528 24.7403C15.8468 24.9941 15.9572 25.5686 15.6859 25.9507L6.78312 39.0611C6.51492 39.4561 5.97504 39.5602 5.57961 39.2935ZM12.0808 46.1111C11.5668 46.5813 10.7318 46.6314 10.1651 46.2198C9.46445 45.7292 9.29358 44.76 9.78419 44.0593L10.8638 42.5174C11.3573 41.8121 12.3315 41.6493 13.0244 42.1365C13.6227 42.5555 13.8331 43.3231 13.5767 43.9748L12.0808 46.1111ZM15.207 49.1403C14.7162 49.8411 13.747 50.0118 13.0465 49.5213C12.3458 49.0306 12.1748 48.0616 12.6654 47.3609L15.7996 42.885C16.2932 42.1795 17.2672 42.0168 17.9602 42.5039C18.6606 42.9944 18.8316 43.963 18.3417 44.6637L15.207 49.1403ZM18.7922 51.586C18.3127 52.2757 17.3546 52.4571 16.6568 51.9905C15.9184 51.5455 15.703 50.484 16.2132 49.7882L20.0055 44.3724C20.4962 43.6717 21.4652 43.5007 22.1674 43.9924L22.1818 44.0024C22.8801 44.4914 23.0525 45.4587 22.5658 46.1587L18.7922 51.586ZM22.9782 53.0052C22.4875 53.7057 21.5184 53.8767 20.8176 53.3862C20.2471 53.0011 20.0052 52.2186 20.2526 51.5802L22.4292 48.4495C22.9612 47.964 23.7687 47.9075 24.3617 48.3249C25.0547 48.7891 25.235 49.8121 24.7426 50.4853L22.9782 53.0052ZM20.1595 29.1022C19.8108 29.3152 19.5145 29.5922 19.2786 29.9256L15.8143 34.8213C15.1806 35.6739 15.5082 36.9963 16.4667 37.4544C18.8846 38.6804 21.8798 38.0426 23.5884 35.9378L25.6344 33.4171L28.4706 32.569L42.6517 44.7533C43.3567 45.3469 43.4582 46.4124 42.8778 47.1288C42.2865 47.8585 41.2114 47.9715 40.4813 47.3804L33.0662 41.3756C32.8096 41.1678 32.4331 41.2074 32.2253 41.464C32.0175 41.7206 32.0571 42.097 32.3137 42.3048L38.8265 47.5789L38.8269 47.5792L38.8276 47.5798C39.5429 48.1598 39.6535 49.2133 39.074 49.929C38.4943 50.6449 37.4403 50.7556 36.7243 50.1756L29.3945 44.24C29.1379 44.0322 28.7615 44.0718 28.5537 44.3284C28.3459 44.585 28.3854 44.9614 28.6421 45.1692L34.116 49.6021C34.8256 50.1527 34.9426 51.2657 34.3631 51.9518C33.8123 52.6615 32.6998 52.7779 32.0133 52.1986L28.0742 49.0087C27.8176 48.8009 27.4412 48.8405 27.2334 49.0971C27.0255 49.3537 27.0651 49.7301 27.3217 49.9379L29.5652 51.7546C29.5653 51.7547 29.5654 51.755 29.5656 51.7551C29.5659 51.7553 29.5661 51.7555 29.5665 51.7557C30.3051 52.3564 30.4186 53.4468 29.8195 54.1868C29.2796 54.8534 28.3801 54.9978 27.7629 54.5089L24.9112 52.3298L25.7225 51.1712C26.5946 49.9792 26.275 48.1673 25.0479 47.3453C24.5885 47.0237 24.0638 46.863 23.5412 46.8507L23.5478 46.8411C24.4096 45.6016 24.1046 43.8888 22.8666 43.0219L22.8522 43.0119C21.8837 42.3338 20.6256 42.3694 19.7068 43.0078C19.5384 42.427 19.1792 41.8976 18.6465 41.5245C17.4059 40.6557 15.6895 40.9584 14.8206 42.1991L14.6859 42.3915C14.4948 41.9095 14.1662 41.4761 13.7106 41.1572C12.6232 40.3958 11.1705 40.5343 10.2432 41.4153C9.40346 40.8386 8.66653 40.1405 8.04594 39.3305L16.2214 27.2911C17.1902 27.7882 18.2684 28.1152 19.3739 28.2409C19.8754 28.2978 20.4131 28.4182 20.9816 28.6004L20.1595 29.1022ZM54.8484 37.6889L51.2124 39.7878C50.7981 40.0287 50.2667 39.879 50.028 39.472L42.0607 25.7718C41.8167 25.3717 41.9669 24.8065 42.3775 24.5808L46.0141 22.4816C46.4202 22.2451 46.9571 22.3808 47.198 22.7966L55.1659 36.4987C55.2829 36.6998 55.439 37.3981 54.8484 37.6889Z" fill="#F09021"/>
<path id="Vector_7" d="M49.8924 0.00741358V0H14.5089C12.8606 0 11.5195 1.34102 11.5195 2.98935V18.2037C11.5195 18.5338 11.7873 18.8015 12.1174 18.8015C12.4475 18.8015 12.7153 18.5338 12.7153 18.2037V2.98935C12.7153 2.00035 13.5199 1.19574 14.5089 1.19574H46.528C45.5903 2.04196 45.0002 3.26425 45.0002 4.62153V15.2568C45.0002 15.5869 45.2679 15.8546 45.5981 15.8546C45.9282 15.8546 46.1959 15.5869 46.1959 15.2568V10.7436H53.6746C54.0047 10.7436 54.2724 10.4759 54.2724 10.1457V4.62153C54.2723 2.15891 52.3301 0.140499 49.8924 0.00741358ZM53.0766 9.54785H46.1959V4.62153C46.1959 2.7325 47.7393 1.19574 49.6363 1.19574C51.5334 1.19574 53.0767 2.7325 53.0767 4.62153V9.54785H53.0766Z" fill="#F09021"/>
<g id="Group_10">
<path id="Vector_8" d="M45.5975 19.1653C46.0268 19.1653 46.3748 18.8173 46.3748 18.3881C46.3748 17.9588 46.0268 17.6108 45.5975 17.6108C45.1683 17.6108 44.8203 17.9588 44.8203 18.3881C44.8203 18.8173 45.1683 19.1653 45.5975 19.1653Z" fill="#F09021"/>
</g>
</g>
</g>
</g>
<defs>
<clipPath id="clip0_1863_2284">
<rect width="56" height="56" fill="white" transform="translate(0.5)"/>
</clipPath>
</defs>
</svg>
