<svg width="57" height="56" viewBox="0 0 57 56" fill="none" xmlns="http://www.w3.org/2000/svg">
<g id="fi_9299882" clip-path="url(#clip0_1863_297)">
<g id="Group 1000003602">
<path id="Vector" d="M30.3047 33.52C31.2409 34.08 32.3872 34.5787 33.5947 34.9987L30.8822 39.2862C30.7947 39.4262 30.7422 39.5925 30.7422 39.75C30.7422 39.8987 30.7772 40.0387 30.8472 40.17C31.0047 40.45 31.2934 40.625 31.6172 40.625H38.6172C38.8972 40.625 39.1597 40.4937 39.3259 40.2662L42.3709 36.0837C49.9222 34.9987 55.6447 28.3662 55.9072 28.06C56.1872 27.7362 56.1872 27.255 55.9072 26.9312C55.6447 26.625 49.9222 19.9925 42.3709 18.9075L39.3259 14.725C39.1597 14.4975 38.8972 14.3662 38.6172 14.3662H31.6172C31.3022 14.3662 31.0047 14.5412 30.8472 14.8212C30.7772 14.9525 30.7422 15.1012 30.7422 15.2412C30.7422 15.4075 30.7859 15.565 30.8822 15.705L33.5947 19.9925C32.3784 20.4125 31.2409 20.9112 30.3047 21.4712C30.0422 21.6287 29.8759 21.9175 29.8759 22.2237V32.7587C29.8759 33.065 30.0422 33.3537 30.3047 33.5112V33.52ZM40.1047 36.2412L38.1797 38.875H33.2184L35.3359 35.5237C36.9722 35.9525 38.6434 36.215 40.1047 36.2412ZM33.2184 16.125H38.1797L40.1047 18.7587C38.6347 18.785 36.9722 19.0387 35.3359 19.4762L33.2184 16.125ZM31.6259 22.74C34.0584 21.4275 37.6284 20.5 40.3409 20.5C46.8072 20.5 52.3809 25.7412 54.0697 27.5C52.3897 29.2587 46.8159 34.5 40.3409 34.5C37.6284 34.5 34.0584 33.5725 31.6259 32.26V22.74Z" fill="#F09021"/>
<path id="Vector_2" d="M44.75 27.5C44.75 25.085 42.79 23.125 40.375 23.125C37.96 23.125 36 25.085 36 27.5C36 29.915 37.96 31.875 40.375 31.875C42.79 31.875 44.75 29.915 44.75 27.5ZM37.75 27.5C37.75 26.0563 38.9313 24.875 40.375 24.875C41.8187 24.875 43 26.0563 43 27.5C43 28.9437 41.8187 30.125 40.375 30.125C38.9313 30.125 37.75 28.9437 37.75 27.5Z" fill="#F09021"/>
<path id="Vector_3" d="M9.75102 38C8.30727 38 7.12602 39.1812 7.12602 40.625C7.12602 42.0688 8.30727 43.25 9.75102 43.25C10.8885 43.25 11.851 42.515 12.2185 41.5H15.876C16.1998 41.5 16.4885 41.325 16.646 41.045L21.651 31.875H27.2598V30.125H21.1348C20.811 30.125 20.5223 30.3 20.3648 30.58L15.3598 39.75H12.2185C11.8598 38.735 10.8973 38 9.75102 38ZM10.626 40.625C10.626 41.1062 10.2323 41.5 9.75102 41.5C9.26977 41.5 8.87602 41.1062 8.87602 40.625C8.87602 40.1438 9.26977 39.75 9.75102 39.75C10.2323 39.75 10.626 40.1438 10.626 40.625Z" fill="#F09021"/>
<path id="Vector_4" d="M9.75102 17C10.8885 17 11.851 16.265 12.2185 15.25H15.3598L19.656 23.125H15.3685L12.9973 20.7538C12.831 20.5875 12.6123 20.5 12.376 20.5H7.84352C7.48477 19.485 6.52227 18.75 5.37602 18.75C3.93227 18.75 2.75102 19.9312 2.75102 21.375C2.75102 22.8188 3.93227 24 5.37602 24C6.51352 24 7.47602 23.265 7.84352 22.25H12.0173L14.3885 24.6212C14.5548 24.7875 14.7735 24.875 15.0098 24.875H27.2598V23.125H21.651L16.646 13.955C16.4973 13.675 16.1998 13.5 15.876 13.5H12.2185C11.8598 12.485 10.8973 11.75 9.75102 11.75C8.30727 11.75 7.12602 12.9312 7.12602 14.375C7.12602 15.8187 8.30727 17 9.75102 17ZM4.50102 21.375C4.50102 20.8938 4.89477 20.5 5.37602 20.5C5.85727 20.5 6.25102 20.8938 6.25102 21.375C6.25102 21.8562 5.85727 22.25 5.37602 22.25C4.89477 22.25 4.50102 21.8562 4.50102 21.375ZM9.75102 13.5C10.2323 13.5 10.626 13.8937 10.626 14.375C10.626 14.8563 10.2323 15.25 9.75102 15.25C9.26977 15.25 8.87602 14.8563 8.87602 14.375C8.87602 13.8937 9.26977 13.5 9.75102 13.5Z" fill="#F09021"/>
<path id="Vector_5" d="M6.96844 33.625H15.0009C15.2897 33.625 15.5697 33.4762 15.7272 33.2312L18.9647 28.375H28.1172V26.625H18.4922C18.2034 26.625 17.9234 26.7738 17.7659 27.0188L14.5284 31.875H6.95969C6.60094 30.86 5.63844 30.125 4.49219 30.125C3.04844 30.125 1.86719 31.3063 1.86719 32.75C1.86719 34.1937 3.04844 35.375 4.49219 35.375C5.62969 35.375 6.59219 34.64 6.95969 33.625H6.96844ZM3.62594 32.75C3.62594 32.2688 4.01969 31.875 4.50094 31.875C4.98219 31.875 5.37594 32.2688 5.37594 32.75C5.37594 33.2312 4.98219 33.625 4.50094 33.625C4.01969 33.625 3.62594 33.2312 3.62594 32.75Z" fill="#F09021"/>
</g>
</g>
<defs>
<clipPath id="clip0_1863_297">
<rect width="56" height="56" fill="white" transform="translate(0.5)"/>
</clipPath>
</defs>
</svg>
