<svg width="83" height="83" viewBox="0 0 83 83" fill="none" xmlns="http://www.w3.org/2000/svg">
<g opacity="0.2">
<path d="M15.0765 17.5891L17.492 22.5821L22.9713 23.3278C24.0574 23.4737 24.4465 24.8192 23.7008 25.5325L19.6967 29.3745L20.6855 34.8213C20.8801 35.8912 19.7453 36.7018 18.8051 36.183L13.9256 33.5569L9.04607 36.183C8.10584 36.6856 6.92244 35.9075 7.18182 34.7403L8.15447 29.3582L4.15037 25.5162C3.37225 24.7705 3.79373 23.4412 4.89608 23.2953L10.3592 22.5496L12.7746 17.5567C13.2285 16.6002 14.6226 16.6164 15.0765 17.5891ZM15.4656 24.3328L13.9256 21.1231L12.3693 24.3328C12.191 24.7057 11.8181 24.9975 11.3804 25.0623L7.86268 25.5325L10.4402 27.9965C10.732 28.2883 10.8941 28.7098 10.8131 29.1475L10.1808 32.6491L13.2933 30.9793C13.6662 30.7848 14.1363 30.7524 14.5254 30.9793L17.6541 32.6653L17.0381 29.2286C16.9408 28.8071 17.0543 28.337 17.3947 27.9965L19.9722 25.5325L16.4869 25.0623C16.0654 25.0137 15.6601 24.7381 15.4656 24.3328ZM42.6676 5.83617L45.083 10.8291L50.5785 11.5748C51.6646 11.7207 52.0537 13.0662 51.308 13.7957L47.3039 17.6377L48.2928 23.0846C48.4873 24.1545 47.3525 24.9651 46.4123 24.4463L41.5004 21.8202L36.6209 24.4463C35.6806 24.9489 34.4972 24.1707 34.7566 23.0036L35.7293 17.6215L31.709 13.7795C30.9308 13.0338 31.3523 11.7045 32.4547 11.5586L37.9178 10.8129L40.3332 5.83617C40.8195 4.8473 42.1974 4.86351 42.6676 5.83617ZM43.0566 12.5799L41.5004 9.37015L39.9603 12.5799C39.782 12.9528 39.4092 13.2446 38.9715 13.3094L35.4375 13.7795L38.015 16.2436C38.323 16.5354 38.4689 16.9569 38.3879 17.3946L37.7556 20.8961L40.8844 19.2264C41.2572 19.0319 41.7111 18.9995 42.1164 19.2264L45.2451 20.9123L44.6291 17.4756C44.5318 17.0541 44.6453 16.584 44.9857 16.2436L47.5633 13.7795L44.0779 13.2932C43.6402 13.2608 43.2512 12.9852 43.0566 12.5799ZM70.2424 17.5891L72.6578 22.5821L78.1371 23.3278C79.2232 23.4737 79.6285 24.8192 78.8666 25.5325L74.8625 29.3745L75.8513 34.8213C76.0459 35.8912 74.9111 36.7018 73.9709 36.183L69.0914 33.5569L64.2119 36.183C63.2717 36.6856 62.0883 35.9075 62.3314 34.7403L63.3041 29.3582L59.3 25.5162C58.5219 24.7705 58.9433 23.4412 60.0457 23.2953L65.5088 22.5496L67.9242 17.5567C68.3943 16.6002 69.7885 16.6164 70.2424 17.5891ZM70.6314 24.3328L69.0914 21.1231L67.5351 24.3328C67.3568 24.7057 67.0002 24.9975 66.5463 25.0623L63.0285 25.5325L65.5898 27.9965C65.8816 28.2883 66.0437 28.7098 65.9627 29.1475L65.3305 32.6491L68.4592 30.9793C68.832 30.7848 69.3021 30.7524 69.6912 30.9793L72.8361 32.6653L72.2201 29.2286C72.1228 28.8071 72.2363 28.337 72.5767 27.9965L75.1381 25.5325L71.6527 25.0623C71.2312 25.0137 70.826 24.7381 70.6314 24.3328ZM35.4861 50.6918C35.1295 50.0758 35.3402 49.2815 35.9562 48.9248C36.5722 48.5682 37.3666 48.7789 37.7232 49.395L39.4254 52.3453L45.4721 46.2987C45.9746 45.7961 46.8013 45.7961 47.3039 46.2987C47.8064 46.8012 47.8064 47.628 47.3039 48.1305L40.0576 55.3768C39.4578 55.9766 38.4527 55.8469 38.0312 55.1174L35.4861 50.6918ZM41.5004 36.9936C48.5521 36.9936 54.2746 42.716 54.2746 49.7678C54.2746 56.8196 48.5521 62.542 41.5004 62.542C34.4486 62.542 28.7262 56.8196 28.7262 49.7678C28.7262 42.716 34.4486 36.9936 41.5004 36.9936ZM48.698 42.5702C44.7263 38.5985 38.2744 38.5985 34.3027 42.5702C30.331 46.5418 30.331 52.9938 34.3027 56.9655C38.2744 60.9371 44.7263 60.9371 48.698 56.9655C52.6697 52.9776 52.6697 46.5418 48.698 42.5702ZM41.5004 28.9692C52.9777 28.9692 62.2828 38.2743 62.2828 49.7516C62.2828 54.0961 60.9535 58.1327 58.6678 61.4721L64.8765 72.22C65.4764 73.225 64.6496 74.3598 63.5797 74.1977L57.225 73.1926L53.8207 77.375C53.2209 78.1532 52.1023 78.0235 51.6646 77.2453L47.3201 69.7235C43.5267 70.8258 39.4578 70.8258 35.6806 69.7235L31.3361 77.2453C30.8984 78.0235 29.7799 78.1532 29.1801 77.375L25.7758 73.1926L19.4211 74.1977C18.3349 74.376 17.573 73.1926 18.0918 72.2686L24.333 61.4721C18.6916 53.2207 19.7453 42.1162 26.8133 35.0483C30.558 31.3036 35.7617 28.9692 41.5004 28.9692ZM56.9494 63.6606C54.9717 65.8653 52.54 67.6323 49.7842 68.8319L52.9615 74.3274L55.6849 70.9879C55.993 70.5989 56.4631 70.453 56.917 70.534L61.2939 71.2311L56.9494 63.6606ZM33.2004 68.8319C30.4607 67.6323 28.0291 65.8653 26.0513 63.6768L21.6906 71.2311L26.0676 70.534C26.5053 70.453 26.9916 70.6151 27.2996 70.9879L30.023 74.3274L33.2004 68.8319ZM54.3719 36.8963C47.2715 29.7959 35.7455 29.7959 28.6451 36.8963C21.5447 43.9967 21.5447 55.5227 28.6451 62.6231C35.7617 69.7235 47.2715 69.7235 54.3719 62.6231C61.4722 55.5227 61.4722 43.9967 54.3719 36.8963Z" fill="#F62D17"/>
</g>
</svg>
