<svg width="20" height="12" viewBox="0 0 20 12" fill="none" xmlns="http://www.w3.org/2000/svg">
<path d="M10.82 10.9105C10.3723 11.3632 9.62841 11.3628 9.18016 10.9117L9.1799 10.9114L1.08812 2.74395L1.08793 2.74376C0.637358 2.28798 0.637358 1.54971 1.08793 1.09393L1.08815 1.09371C1.54095 0.636829 2.27594 0.636436 2.72823 1.09373L10.82 10.9105ZM10.82 10.9105L10.8202 10.9103L10.82 10.9105ZM10.0004 8.43321L2.72843 1.09393L10.0004 8.43321ZM10.0004 8.43321L17.2725 1.09303C17.2725 1.09301 17.2725 1.09299 17.2725 1.09297L17.2727 1.09284L17.4503 1.26879L10.0004 8.43321Z" fill="black" stroke="black" stroke-width="0.5"/>
</svg>
