<svg width="40" height="40" viewBox="0 0 40 40" fill="none" xmlns="http://www.w3.org/2000/svg">
<path d="M18.0047 4.87915C18.5675 4.41854 19.2724 4.16687 19.9997 4.16687C20.727 4.16687 21.4318 4.41854 21.9947 4.87915L32.9738 13.8308C33.3474 14.1371 33.6482 14.5226 33.8545 14.9595C34.0607 15.3963 34.1672 15.8736 34.1663 16.3567V32.5942C34.1663 34.3833 32.7397 35.8333 30.9788 35.8333H26.5205C24.7597 35.8333 23.333 34.3833 23.333 32.5942V24.9058C23.333 24.3092 22.858 23.8258 22.2705 23.8258H17.7288C17.1422 23.8258 16.6663 24.3092 16.6663 24.9058V32.5942C16.6663 34.3833 15.2397 35.8333 13.4788 35.8333H9.02051C7.26051 35.8333 5.83301 34.3833 5.83301 32.5942V16.3567C5.83211 15.8736 5.93864 15.3963 6.14488 14.9595C6.35113 14.5226 6.65193 14.1371 7.02551 13.8308L18.0047 4.87915ZM20.6647 6.56332C20.4771 6.40978 20.2421 6.32589 19.9997 6.32589C19.7573 6.32589 19.5223 6.40978 19.3347 6.56332L8.35551 15.5142C8.23076 15.6162 8.13035 15.7447 8.06158 15.8905C7.99282 16.0362 7.95743 16.1955 7.95801 16.3567V32.5942C7.95801 33.1908 8.43301 33.6742 9.02051 33.6742H13.4788C14.0655 33.6742 14.5413 33.1908 14.5413 32.5942V24.9058C14.5413 23.1167 15.9688 21.6667 17.7288 21.6667H22.2705C24.0305 21.6667 25.458 23.1167 25.458 24.9058V32.5942C25.458 33.1908 25.933 33.6742 26.5205 33.6742H30.9788C31.5655 33.6742 32.0413 33.1908 32.0413 32.5942V16.3567C32.0418 16.1956 32.0064 16.0365 31.9376 15.891C31.8688 15.7454 31.7685 15.6169 31.6438 15.515L20.6647 6.56332Z" fill="white"/>
</svg>
