<svg width="32" height="32" viewBox="0 0 32 32" fill="none" xmlns="http://www.w3.org/2000/svg">
<path d="M24.8002 6.3999C25.8611 6.3999 26.8785 6.82133 27.6286 7.57148C28.3788 8.32162 28.8002 9.33904 28.8002 10.3999V23.1999C28.8002 24.2608 28.3788 25.2782 27.6286 26.0283C26.8785 26.7785 25.8611 27.1999 24.8002 27.1999H7.2002C6.13933 27.1999 5.12191 26.7785 4.37177 26.0283C3.62162 25.2782 3.2002 24.2608 3.2002 23.1999V10.3999C3.2002 9.33904 3.62162 8.32162 4.37177 7.57148C5.12191 6.82133 6.13933 6.3999 7.2002 6.3999H24.8002ZM27.2002 12.7375L16.4066 19.0895C16.3046 19.1494 16.1905 19.1859 16.0726 19.1965C15.9548 19.207 15.836 19.1912 15.725 19.1503L15.5938 19.0895L4.8002 12.7407V23.1999C4.8002 23.8364 5.05305 24.4469 5.50314 24.897C5.95323 25.347 6.56368 25.5999 7.2002 25.5999H24.8002C25.4367 25.5999 26.0472 25.347 26.4973 24.897C26.9473 24.4469 27.2002 23.8364 27.2002 23.1999V12.7375ZM24.8002 7.9999H7.2002C6.56368 7.9999 5.95323 8.25276 5.50314 8.70285C5.05305 9.15293 4.8002 9.76338 4.8002 10.3999V10.8831L16.0002 17.4719L27.2002 10.8799V10.3999C27.2002 9.76338 26.9473 9.15293 26.4973 8.70285C26.0472 8.25276 25.4367 7.9999 24.8002 7.9999Z" fill="white"/>
</svg>
