<?xml version="1.0" encoding="UTF-8"?>
<svg version="1.1" xmlns="http://www.w3.org/2000/svg" width="1024" height="351">
<path d="M0 0 C1.22753746 -0.00642769 1.22753746 -0.00642769 2.47987366 -0.01298523 C4.20361408 -0.01870546 5.92737863 -0.01924588 7.65112305 -0.01489258 C10.27369756 -0.01173256 12.89514277 -0.03522003 15.51757812 -0.06054688 C17.19921734 -0.06282027 18.88085956 -0.06352318 20.5625 -0.0625 C21.33875229 -0.07170975 22.11500458 -0.08091949 22.91477966 -0.09040833 C29.2309795 -0.03730721 33.96980811 1.22016413 38.84765625 5.48828125 C39.67265625 6.41640625 40.49765625 7.34453125 41.34765625 8.30078125 C41.82332031 8.80867188 42.29898438 9.3165625 42.7890625 9.83984375 C47.92904253 15.46285805 52.38324536 21.60066226 56.921875 27.70703125 C60.60829325 32.66384925 64.34985298 37.57779014 68.09765625 42.48828125 C69.10977173 43.81508911 69.10977173 43.81508911 70.14233398 45.16870117 C71.52244298 46.97767695 72.90273366 48.78651414 74.28320312 50.59521484 C77.64053165 54.99515745 80.99393114 59.39809184 84.34765625 63.80078125 C85.68096996 65.5507962 87.01430331 67.30079619 88.34765625 69.05078125 C91.01432292 72.55078125 93.68098958 76.05078125 96.34765625 79.55078125 C97.00846191 80.41807861 97.66926758 81.28537598 98.35009766 82.17895508 C99.67533225 83.91834573 101.00052795 85.65776601 102.32568359 87.3972168 C105.78259941 91.93479123 109.24031164 96.47175576 112.69921875 101.0078125 C113.77236328 102.41546875 113.77236328 102.41546875 114.8671875 103.8515625 C116.22630977 105.63430729 117.58566768 107.41687247 118.9453125 109.19921875 C119.56535156 110.01261719 120.18539062 110.82601562 120.82421875 111.6640625 C121.71608887 112.82736084 121.71608887 112.82736084 122.62597656 114.01416016 C123.77481469 115.53997098 124.89939796 117.08434584 125.99902344 118.64599609 C126.51368164 119.37125488 127.02833984 120.09651367 127.55859375 120.84375 C128.00251465 121.48723389 128.44643555 122.13071777 128.90380859 122.79370117 C130.65186197 124.61830947 131.92156638 124.78525799 134.34765625 125.30078125 C134.3509664 124.67479129 134.35427654 124.04880133 134.357687 123.40384197 C134.43886239 108.18105875 134.53093677 92.95838397 134.63518333 77.73574352 C134.68533235 70.37422456 134.73177495 63.01271686 134.76953125 55.65112305 C134.80244412 49.23571025 134.84227133 42.82038429 134.89044631 36.40506727 C134.91571843 33.00733991 134.93749751 29.60967021 134.95100021 26.21187401 C134.96780046 22.42131374 134.99682073 18.63103434 135.02880859 14.84057617 C135.03204887 13.14556976 135.03204887 13.14556976 135.03535461 11.4163208 C135.0465181 10.38567001 135.05768158 9.35501923 135.06918335 8.2931366 C135.07471411 7.39623202 135.08024487 6.49932745 135.08594322 5.57524395 C135.34765625 3.30078125 135.34765625 3.30078125 137.34765625 0.30078125 C140.38867188 -0.0715332 140.38867188 -0.0715332 144.25390625 -0.0625 C144.9344104 -0.0629985 145.61491455 -0.06349701 146.31604004 -0.06401062 C147.75515665 -0.06166957 149.1942773 -0.05193904 150.63330078 -0.03540039 C152.83923862 -0.01180877 155.04396811 -0.01483822 157.25 -0.02148438 C168.06857375 0.02169875 168.06857375 0.02169875 170.34765625 2.30078125 C170.60213184 4.75781441 170.60213184 4.75781441 170.60835266 7.91629028 C170.61543747 9.11070236 170.62252228 10.30511444 170.62982178 11.53572083 C170.62734436 12.85311752 170.62486694 14.17051422 170.62231445 15.52783203 C170.62665999 16.92399875 170.63184261 18.32016309 170.63780212 19.71632385 C170.65122692 23.51623489 170.65176648 27.31604667 170.64923882 31.11597681 C170.64817052 34.28909543 170.65304937 37.46219385 170.65784425 40.63530815 C170.66895348 48.12635353 170.66937024 55.61734879 170.66333008 63.10839844 C170.65730099 70.82797828 170.66957084 78.54737537 170.69090015 86.26692402 C170.70854406 92.89719494 170.71451274 99.52740786 170.7112624 106.15770137 C170.70945234 110.11620283 170.71205705 114.0745742 170.72597694 118.03305435 C170.73859455 121.76116534 170.73657429 125.48899327 170.72356606 129.21710014 C170.72008892 131.22896443 170.73135197 133.2408375 170.74313354 135.25267029 C170.69575894 143.43398847 170.50635327 149.99850709 164.59765625 156.17578125 C159.05600939 159.79916573 153.73334137 160.5541717 147.19921875 160.56640625 C146.54239105 160.5683197 145.88556335 160.57023315 145.20883179 160.57220459 C143.82899591 160.57355603 142.44914685 160.56993297 141.06933594 160.56152344 C138.98472761 160.5508431 136.90098766 160.56143594 134.81640625 160.57421875 C115.80720776 160.60943675 115.80720776 160.60943675 107.48193359 152.59277344 C104.05898218 148.91687915 101.08398946 145.00426716 98.16015625 140.92578125 C96.85821933 139.14997879 95.55480116 137.37526148 94.25 135.6015625 C93.60015137 134.7142041 92.95030273 133.8268457 92.28076172 132.91259766 C89.32986005 128.92563807 86.28194827 125.01732874 83.22265625 121.11328125 C77.07945053 113.25311063 71.00579117 105.34229415 64.95654297 97.40966797 C62.25679776 93.87091241 59.55194408 90.33606574 56.84765625 86.80078125 C55.76039852 85.37892012 54.67315892 83.95704514 53.5859375 82.53515625 C51.45884007 79.75351818 49.33120539 76.97229237 47.203125 74.19140625 C46.14710435 72.81122169 45.09111491 71.43101324 44.03515625 70.05078125 C43.5131665 69.36854492 42.99117676 68.68630859 42.45336914 67.98339844 C39.33489323 63.90557208 36.22200263 59.82354967 33.11328125 55.73828125 C32.39438721 54.7937207 31.67549316 53.84916016 30.93481445 52.87597656 C29.5317526 51.03199794 28.12922165 49.18761521 26.72729492 47.34277344 C25.47330047 45.69469341 24.21537454 44.04959371 22.95263672 42.40820312 C21.6468076 40.69358235 20.38323187 38.94684508 19.1328125 37.19140625 C18.54371094 36.5675 17.95460937 35.94359375 17.34765625 35.30078125 C16.02765625 35.30078125 14.70765625 35.30078125 13.34765625 35.30078125 C13.3452679 35.93284674 13.34287954 36.56491222 13.34041882 37.21613121 C13.281338 52.58046816 13.20583279 67.94462268 13.11194134 83.30878258 C13.06693451 90.73871825 13.0275313 98.16860547 13.0012207 105.59863281 C12.97828 112.07303005 12.94492644 118.54727457 12.89895469 125.02155077 C12.87496902 128.4511313 12.85627548 131.88056007 12.85004234 135.31022263 C12.84289714 139.13455608 12.81250895 142.95850829 12.7800293 146.78271484 C12.78146439 147.92566513 12.78289948 149.06861542 12.78437805 150.24620056 C12.7718399 151.28389084 12.75930176 152.32158112 12.74638367 153.39071655 C12.73947022 154.74851762 12.73947022 154.74851762 12.73241711 156.13374901 C12.60544602 156.84886965 12.47847494 157.56399029 12.34765625 158.30078125 C7.28803668 161.67386096 1.35182492 160.6698544 -4.58984375 160.67578125 C-5.87826172 160.70027344 -7.16667969 160.72476563 -8.49414062 160.75 C-9.73099609 160.75386719 -10.96785156 160.75773438 -12.2421875 160.76171875 C-13.37519287 160.76993652 -14.50819824 160.7781543 -15.67553711 160.78662109 C-19.38143451 160.18178751 -20.33850436 159.20775137 -22.65234375 156.30078125 C-23.15012169 153.71535397 -23.15012169 153.71535397 -23.14682007 150.73069763 C-23.15520905 149.59677078 -23.16359802 148.46284393 -23.17224121 147.29455566 C-23.1610022 146.05451782 -23.14976318 144.81447998 -23.13818359 143.53686523 C-23.14198029 142.22746475 -23.14577698 140.91806427 -23.14968872 139.56898499 C-23.15938308 135.97750296 -23.14407282 132.3865181 -23.12378263 128.79509616 C-23.10618947 125.02861029 -23.10973733 121.26213931 -23.11050415 117.49562073 C-23.10863054 111.16293047 -23.09126815 104.83043173 -23.06396484 98.49780273 C-23.03260835 91.19861042 -23.02196542 83.89962852 -23.02343595 76.60037369 C-23.02479311 68.80946687 -23.0108653 61.01864018 -22.99254274 53.22775769 C-22.98830061 50.99456742 -22.98686313 48.76139026 -22.98606491 46.52819633 C-22.98403767 42.99951703 -22.97168072 39.47101056 -22.95173264 35.94238853 C-22.94321436 34.046846 -22.94421615 32.15126795 -22.94561768 30.25570679 C-22.80134416 10.74292732 -22.80134416 10.74292732 -16.48046875 3.640625 C-11.49838862 -0.01077134 -5.90846826 -0.00691916 0 0 Z " fill="#FFFFFF" transform="translate(29.65234375,103.69921875)"/>
<path d="M0 0 C1.30537216 -0.00365067 2.61074432 -0.00730133 3.95567322 -0.01106262 C7.50059841 -0.02038172 11.04524322 -0.01112739 14.5901463 0.00226951 C18.31009237 0.01366244 22.03002622 0.00947103 25.74998474 0.00752258 C31.984411 0.00664306 38.2187278 0.01765637 44.453125 0.03613281 C51.66345607 0.05737894 58.8736279 0.06079062 66.08398396 0.05457085 C73.03213006 0.04888431 79.98022007 0.05450905 86.92835808 0.0657444 C89.88247654 0.07039131 92.83656071 0.07126397 95.79068184 0.06915855 C99.90350887 0.06693161 104.01611098 0.08135647 108.12890625 0.09765625 C109.35743317 0.09517883 110.58596008 0.09270142 111.85171509 0.09014893 C112.9660643 0.09723373 114.08041351 0.10431854 115.22853088 0.11161804 C116.20056237 0.11367091 117.17259386 0.11572378 118.17408085 0.11783886 C120.48217773 0.37231445 120.48217773 0.37231445 122.48217773 2.37231445 C122.72509766 5.13793945 122.72509766 5.13793945 122.71264648 8.62231445 C122.71071289 9.87012695 122.7087793 11.11793945 122.70678711 12.40356445 C122.69454102 13.71325195 122.68229492 15.02293945 122.66967773 16.37231445 C122.66871094 18.3368457 122.66871094 18.3368457 122.66772461 20.34106445 C122.62239541 30.0918791 122.62239541 30.0918791 121.48217773 32.37231445 C120.87625793 32.3756246 120.27033813 32.37893475 119.64605713 32.3823452 C104.88051056 32.4636808 90.11505833 32.55580763 75.34965515 32.65984154 C68.20911791 32.70989393 61.06859172 32.75633747 53.92797852 32.79418945 C47.7018599 32.82720302 41.47582898 32.86708545 35.24980736 32.91510451 C31.95531515 32.94027682 28.66089147 32.96106025 25.36633301 32.97565842 C21.6821643 32.99256638 17.99827463 33.02161332 14.31420898 33.0534668 C13.23023331 33.05562698 12.14625763 33.05778717 11.0294342 33.06001282 C5.1720425 33.12460837 0.09856659 33.684086 -5.51782227 35.37231445 C-8.30910103 44.61842534 -8.30910103 53.12620356 -5.51782227 62.37231445 C0.50811755 64.11632921 5.88100668 64.662068 12.13598633 64.64355469 C13.06718796 64.64878143 13.99838959 64.65400818 14.95780945 64.65939331 C16.96731266 64.66958512 18.9768419 64.67540525 20.98637009 64.6772747 C24.17394912 64.68095828 27.36122254 64.69773943 30.54873657 64.71803284 C39.60722151 64.77325434 48.6657506 64.80409785 57.72436523 64.82861328 C63.2774404 64.84454282 68.8302972 64.87481576 74.38325882 64.91337776 C76.49061378 64.9249773 78.59800786 64.93095767 80.70539474 64.93105888 C83.6603534 64.93125229 86.61471485 64.94961693 89.56958008 64.97167969 C90.4280806 64.96710251 91.28658112 64.96252533 92.1710968 64.95780945 C102.99309614 65.08539266 112.43403345 68.47234297 120.23608398 76.08325195 C128.50866659 85.91083129 129.11708013 98.52000061 128.94873047 110.75732422 C128.91957618 113.06786251 128.92820978 115.37612061 128.94116211 117.68676758 C128.92357917 130.114406 127.31044696 140.76633803 118.76733398 150.2824707 C108.31977772 160.34545435 95.00858488 160.52105205 81.3425293 160.53344727 C80.02959396 160.53841217 78.71665863 160.54337708 77.36393738 160.54849243 C73.7795545 160.56154237 70.19519028 160.56804536 66.61078739 160.57250309 C64.3706163 160.57544232 62.13045023 160.57954843 59.89028168 160.58400726 C52.87811854 160.59765489 45.86596697 160.60733817 38.85379148 160.61120915 C30.76304594 160.61570084 22.67246842 160.63331131 14.581774 160.66220975 C8.32091241 160.68379673 2.06009824 160.69391163 -4.20080018 160.69525027 C-7.93831248 160.69629929 -11.67566624 160.70222908 -15.41313934 160.72006989 C-19.57411512 160.7395504 -23.73473574 160.73527366 -27.89575195 160.72875977 C-29.13631851 160.73797455 -30.37688507 160.74718933 -31.65504456 160.75668335 C-33.34992256 160.74832962 -33.34992256 160.74832962 -35.07904053 160.73980713 C-36.06271984 160.74127369 -37.04639915 160.74274025 -38.05988693 160.74425125 C-40.51782227 160.37231445 -40.51782227 160.37231445 -42.33348465 159.02929306 C-44.1801673 156.44564326 -43.90699329 154.15915441 -43.91625977 151.0246582 C-43.92012695 149.78006836 -43.92399414 148.53547852 -43.92797852 147.25317383 C-43.91637695 145.95186523 -43.90477539 144.65055664 -43.89282227 143.30981445 C-43.90442383 142.00463867 -43.91602539 140.69946289 -43.92797852 139.35473633 C-43.92411133 138.11143555 -43.92024414 136.86813477 -43.91625977 135.5871582 C-43.91287598 134.4436792 -43.90949219 133.3002002 -43.90600586 132.12207031 C-43.77790527 131.21465088 -43.64980469 130.30723145 -43.51782227 129.37231445 C-40.21957709 127.17348434 -39.23235417 127.11950033 -35.40052795 127.1072998 C-34.34200119 127.09902664 -33.28347443 127.09075348 -32.19287109 127.08222961 C-31.03174805 127.08321152 -29.870625 127.08419342 -28.67431641 127.08520508 C-27.45135361 127.07837204 -26.22839081 127.071539 -24.96836853 127.0644989 C-22.30822848 127.05089074 -19.64835198 127.04086035 -16.98820686 127.03678894 C-12.78197343 127.03007737 -8.57590069 127.00832532 -4.36973572 126.98425293 C4.56003112 126.93527168 13.48983199 126.90296073 22.41967773 126.87231445 C32.05639921 126.83923295 41.69305785 126.80331063 51.32968241 126.74818373 C55.51087042 126.72483519 59.69194684 126.71109414 63.87319362 126.70468903 C67.08526065 126.69735678 70.29725458 126.67734463 73.50927734 126.65942383 C75.24792557 126.66089668 75.24792557 126.66089668 77.021698 126.66239929 C78.08304459 126.65412613 79.14439117 126.64585297 80.23789978 126.6373291 C81.62027533 126.63292942 81.62027533 126.63292942 83.03057766 126.62844086 C85.64974361 126.35480832 87.26170366 125.76677948 89.48217773 124.37231445 C92.34482498 120.08318588 91.88750772 115.41401842 91.91967773 110.43481445 C91.96898437 109.09386719 91.96898437 109.09386719 92.01928711 107.72583008 C92.05639164 103.18221188 91.98236988 101.04581503 89.20483398 97.3059082 C85.57792953 94.73012957 82.73610005 94.2488294 78.35472107 94.24101257 C77.54053207 94.23700439 76.72634308 94.23299622 75.88748169 94.22886658 C74.56041702 94.22965965 74.56041702 94.22965965 73.20654297 94.23046875 C72.26777817 94.22699432 71.32901337 94.2235199 70.36180115 94.21994019 C68.32329843 94.21259091 66.28478775 94.20724111 64.24627495 94.20364952 C61.01259294 94.19647065 57.7790615 94.18079154 54.54542542 94.16230774 C45.35110589 94.1099178 36.15686781 94.06190781 26.96240234 94.04638672 C21.33606238 94.03626692 15.71010024 94.00683817 10.08390999 93.96506691 C7.94668507 93.95280596 5.80940666 93.94762662 3.67214775 93.94986534 C-23.58109691 93.97138016 -23.58109691 93.97138016 -34.06860352 83.88012695 C-41.47152473 75.90775026 -43.64790659 67.04625316 -43.75610352 56.39575195 C-43.76417526 55.62985748 -43.77224701 54.86396301 -43.78056335 54.07485962 C-43.79435454 52.4560977 -43.80509876 50.8373073 -43.81298828 49.21850586 C-43.82446954 47.5816989 -43.84485999 45.94492824 -43.87451172 44.30834961 C-44.09752604 31.97652962 -43.44718742 21.13238994 -35.26782227 11.15356445 C-25.47812201 1.18904812 -13.35873923 -0.08436747 0 0 Z " fill="#FFFFFF" transform="translate(877.517822265625,103.627685546875)"/>
<path d="M0 0 C1.14887695 -0.00335861 2.29775391 -0.00671722 3.48144531 -0.01017761 C7.25928848 -0.01963775 11.03708716 -0.02162764 14.81494141 -0.02270508 C17.44430561 -0.02591896 20.07366962 -0.02928313 22.70303345 -0.03279114 C28.20209035 -0.03916767 33.70113521 -0.04067518 39.20019531 -0.04003906 C45.56010249 -0.03943617 51.91992543 -0.05003663 58.27981126 -0.06578273 C64.40514248 -0.08040792 70.53043302 -0.08402801 76.65578079 -0.08342934 C79.26100638 -0.08461276 81.86623253 -0.08905469 84.47144699 -0.0967617 C88.10082903 -0.10650087 91.72998981 -0.10370865 95.359375 -0.09765625 C96.44300323 -0.10327576 97.52663147 -0.10889526 98.64309692 -0.11468506 C100.11918427 -0.10839333 100.11918427 -0.10839333 101.62509155 -0.10197449 C102.48302999 -0.10251925 103.34096844 -0.10306402 104.22490501 -0.1036253 C106.29150391 0.14526367 106.29150391 0.14526367 108.29150391 2.14526367 C108.55029297 4.91088867 108.55029297 4.91088867 108.55712891 8.39526367 C108.55970703 9.64307617 108.56228516 10.89088867 108.56494141 12.17651367 C108.55720703 13.48620117 108.54947266 14.79588867 108.54150391 16.14526367 C108.54923828 17.45495117 108.55697266 18.76463867 108.56494141 20.11401367 C108.56236328 21.36182617 108.55978516 22.60963867 108.55712891 23.89526367 C108.55487305 25.04510742 108.55261719 26.19495117 108.55029297 27.37963867 C108.29150391 30.14526367 108.29150391 30.14526367 106.29150391 32.14526367 C104.42628002 32.40139008 104.42628002 32.40139008 102.11430359 32.41027832 C100.80050972 32.42268806 100.80050972 32.42268806 99.46017456 32.43534851 C98.49661041 32.43436661 97.53304626 32.4333847 96.5402832 32.43237305 C95.52699448 32.43920609 94.51370575 32.44603912 93.4697113 32.45307922 C91.26203835 32.46669873 89.05433355 32.47573171 86.84662437 32.48078918 C83.34366747 32.48906578 79.84097286 32.50956517 76.33808899 32.5333252 C68.88509961 32.58165326 61.43208355 32.61446037 53.97900391 32.64526367 C45.37869577 32.68101078 36.778513 32.72321101 28.17832375 32.78120422 C24.74367673 32.80113387 21.30912794 32.80956833 17.87443542 32.81750488 C-1.48325649 32.04815574 -1.48325649 32.04815574 -19.12255859 38.49682617 C-24.31553277 43.89444957 -24.93474121 50.82370547 -25.30615234 57.99682617 C-25.3467981 58.68687744 -25.38744385 59.37692871 -25.42932129 60.08789062 C-25.52782347 61.77337231 -25.61892424 63.45928382 -25.70849609 65.14526367 C-25.03520075 65.14249829 -24.3619054 65.13973291 -23.66820717 65.13688374 C-7.30258598 65.07069609 9.06299295 65.02101837 25.42871666 64.98982716 C33.34298884 64.97434327 41.2571718 64.95322486 49.17138672 64.91894531 C56.067595 64.88908933 62.96373868 64.86969974 69.86000979 64.86299819 C73.5132138 64.85907943 77.16623299 64.84983864 80.8193779 64.8280735 C84.89269031 64.8040008 88.96567925 64.80329121 93.0390625 64.8046875 C94.2568187 64.79390167 95.47457489 64.78311584 96.72923279 64.77200317 C97.8342363 64.77612717 98.93923981 64.78025116 100.07772827 64.78450012 C101.04192373 64.78173474 102.00611919 64.77896936 102.9995327 64.77612019 C103.7558832 64.89793754 104.5122337 65.01975489 105.29150391 65.14526367 C107.46387753 68.40382411 107.54753042 69.37168711 107.55712891 73.14526367 C107.55970703 74.11463867 107.56228516 75.08401367 107.56494141 76.08276367 C107.55720703 77.09338867 107.54947266 78.10401367 107.54150391 79.14526367 C107.54923828 80.15588867 107.55697266 81.16651367 107.56494141 82.20776367 C107.56236328 83.17713867 107.55978516 84.14651367 107.55712891 85.14526367 C107.55487305 86.03213867 107.55261719 86.91901367 107.55029297 87.83276367 C107.29150391 90.14526367 107.29150391 90.14526367 105.29150391 93.14526367 C102.9995327 93.51440716 102.9995327 93.51440716 100.07772827 93.50602722 C98.97272476 93.51015121 97.86772125 93.51427521 96.72923279 93.51852417 C95.51147659 93.50773834 94.2937204 93.49695251 93.0390625 93.48583984 C91.7610527 93.48627792 90.48304291 93.486716 89.16630554 93.48716736 C85.65607963 93.48803016 82.14615958 93.4703587 78.63600492 93.44944549 C74.96980548 93.43072593 71.30359948 93.42893199 67.63735962 93.42536926 C60.69228721 93.41603486 53.74735602 93.39140233 46.80234587 93.36132079 C38.89678664 93.32782006 30.99122076 93.31130169 23.08560824 93.29623449 C6.82082405 93.26485389 -9.44381802 93.21206645 -25.70849609 93.14526367 C-25.57029721 95.70552036 -25.42623334 98.26522285 -25.27880859 100.82495117 C-25.24053955 101.54513428 -25.20227051 102.26531738 -25.1628418 103.00732422 C-24.73629643 110.25859539 -23.9860391 116.36669757 -18.52099609 121.58276367 C-12.26316969 126.92703878 -3.30848541 126.43987125 4.43334961 126.43237305 C5.52209885 126.43920609 6.61084808 126.44603912 7.73258972 126.45307922 C10.0842363 126.46661634 12.43591189 126.47570218 14.78759193 126.48078918 C18.50670689 126.48910178 22.22557911 126.50962574 25.94462585 126.5333252 C34.50249437 126.58553753 43.0604126 126.61986028 51.61837006 126.6530838 C60.10364818 126.68621574 68.58882215 126.72699641 77.07399559 126.78120422 C80.742894 126.80131149 84.41170062 126.80959766 88.0806427 126.81750488 C90.31930888 126.83047101 92.55797194 126.84399039 94.79663086 126.8581543 C96.33252365 126.85668144 96.33252365 126.85668144 97.89944458 126.85517883 C99.30186653 126.86758858 99.30186653 126.86758858 100.73262024 126.88024902 C101.95177612 126.8846487 101.95177612 126.8846487 103.19556141 126.88913727 C105.29150391 127.14526367 105.29150391 127.14526367 108.29150391 129.14526367 C108.6796875 131.89501953 108.6796875 131.89501953 108.68994141 135.36010742 C108.69380859 136.6034082 108.69767578 137.84670898 108.70166016 139.12768555 C108.68425781 141.08544922 108.68425781 141.08544922 108.66650391 143.08276367 C108.67810547 144.38407227 108.68970703 145.68538086 108.70166016 147.02612305 C108.69779297 148.27071289 108.69392578 149.51530273 108.68994141 150.79760742 C108.68655762 151.94221436 108.68317383 153.08682129 108.6796875 154.26611328 C108.2395745 157.53042313 107.84468418 158.19338218 105.29150391 160.14526367 C103.21790791 160.51999378 103.21790791 160.51999378 100.78645325 160.51948547 C99.40137321 160.53000694 99.40137321 160.53000694 97.98831177 160.54074097 C96.9769516 160.53309723 95.96559143 160.52545349 94.92358398 160.51757812 C93.32287804 160.52305412 93.32287804 160.52305412 91.68983459 160.52864075 C88.14674148 160.5367725 84.6041024 160.52310236 81.06103516 160.50854492 C78.59258525 160.50802613 76.12413492 160.50854455 73.65568542 160.51005554 C68.46790437 160.50996567 63.2802782 160.49951456 58.0925293 160.48144531 C51.48132879 160.45891184 44.87035773 160.45818454 38.25912952 160.46496296 C33.15176907 160.46832779 28.0444597 160.46162331 22.93710899 160.45183372 C20.50255286 160.44801296 18.067991 160.44682038 15.63343239 160.44841957 C-33.19523798 160.45377545 -33.19523798 160.45377545 -48.77099609 145.11401367 C-63.28680848 127.84520238 -61.89555953 104.10728976 -61.89379883 82.90673828 C-61.89597935 79.98023793 -61.91418721 77.05411938 -61.93310547 74.12768555 C-62.06633499 30.05122744 -62.06633499 30.05122744 -47.93115234 14.14526367 C-35.10612204 1.97590976 -16.84714316 -0.00712554 0 0 Z " fill="#FFFFFF" transform="translate(288.70849609375,103.854736328125)"/>
<path d="M0 0 C1.0186338 -0.00074776 1.0186338 -0.00074776 2.05784607 -0.00151062 C3.49098645 0.00082672 4.92413118 0.01053539 6.35717773 0.02709961 C8.55424544 0.05073447 10.75010275 0.04765358 12.94726562 0.04101562 C23.71694742 0.08413492 23.71694742 0.08413492 25.99609375 2.36328125 C26.25222015 4.19282627 26.25222015 4.19282627 26.2611084 6.45350647 C26.27351814 7.7381076 26.27351814 7.7381076 26.28617859 9.04866028 C26.28470573 10.46135445 26.28470573 10.46135445 26.28320312 11.90258789 C26.29003616 12.89304108 26.2968692 13.88349426 26.3039093 14.90396118 C26.31752617 17.0608956 26.32656085 19.21786259 26.33161926 21.37483406 C26.33989032 24.79268304 26.36038223 28.2102625 26.38415527 31.6280365 C26.43247813 38.89391147 26.46531387 46.15981361 26.49609375 53.42578125 C26.53179101 61.82144393 26.57386109 70.21697685 26.6320343 78.6125164 C26.65203752 81.97200648 26.66041196 85.33139614 26.66833496 88.69093323 C26.68131736 90.76669674 26.69483912 92.84245698 26.70898438 94.91821289 C26.70751152 96.30965263 26.70751152 96.30965263 26.70600891 97.72920227 C26.78553988 106.15164302 27.54179595 113.62561927 32.99609375 120.36328125 C41.76010785 128.82508797 59.16234424 126.51403726 70.2734375 126.49609375 C71.61519895 126.49677011 72.95696028 126.49774288 74.29872131 126.49899292 C77.0913308 126.50045479 79.88390799 126.49836487 82.67651367 126.49365234 C86.21728311 126.48796159 89.75797659 126.49123966 93.29874325 126.49722481 C96.0640569 126.50087636 98.8293532 126.4996709 101.59466743 126.49709702 C103.52249833 126.49612571 105.45032995 126.49910946 107.37815857 126.50222778 C126.3179171 127.23121589 126.3179171 127.23121589 142.43359375 118.92578125 C147.02289435 111.39932826 147.14578302 103.83892589 147.16967773 95.25878906 C147.17970825 93.75536705 147.17970825 93.75536705 147.18994141 92.22157288 C147.20395408 90.05267788 147.21586005 87.88376846 147.22588921 85.71485138 C147.24233302 82.28606352 147.26556842 78.85738378 147.29078674 75.4286499 C147.36149789 65.68279409 147.42187012 55.93689647 147.47290039 46.19091797 C147.50461131 40.22525164 147.54585499 34.2597139 147.59309578 28.29415131 C147.60915002 26.01830086 147.62145567 23.74242087 147.63000298 21.46652985 C147.64209658 18.29428448 147.66621724 15.1223446 147.69311523 11.95019531 C147.69370438 11.00368607 147.69429352 10.05717682 147.69490051 9.08198547 C147.709478 7.79088112 147.709478 7.79088112 147.72434998 6.47369385 C147.72858191 5.72377293 147.73281385 4.97385201 147.73717403 4.20120621 C147.99609375 2.36328125 147.99609375 2.36328125 149.99609375 0.36328125 C154.55711373 -0.03658997 159.13237614 0.03425733 163.70898438 0.04760742 C165.98746465 0.05076928 168.26464896 0.02730608 170.54296875 0.00195312 C171.98567544 -0.00031963 173.42838563 -0.00102348 174.87109375 0 C176.84722656 -0.00447144 176.84722656 -0.00447144 178.86328125 -0.0090332 C179.89710938 0.11383057 180.9309375 0.23669434 181.99609375 0.36328125 C184.06068129 3.46016257 184.2465495 4.10705885 184.25006104 7.60931396 C184.25852051 8.90821312 184.25852051 8.90821312 184.26715088 10.23335266 C184.26107819 11.65456673 184.26107819 11.65456673 184.25488281 13.10449219 C184.26013977 14.60519508 184.26013977 14.60519508 184.26550293 16.13621521 C184.27433093 19.45676545 184.26846194 22.77710368 184.26171875 26.09765625 C184.26306636 28.41156047 184.2650077 30.72546442 184.26751709 33.03936768 C184.27047084 37.90176068 184.26616731 42.76408035 184.25683594 47.62646484 C184.24551754 53.82298601 184.25195064 60.01933246 184.26398087 66.21584702 C184.27125808 71.00318685 184.26888351 75.79048631 184.26372528 80.57782745 C184.26240095 82.85970328 184.26399333 85.1415829 184.26868439 87.42345428 C184.33842216 130.93591298 184.33842216 130.93591298 170.21875 146.296875 C154.30138441 161.43302019 130.59134788 160.52270514 110.109375 160.53125 C108.28012568 160.53447167 106.45087661 160.5378364 104.62162781 160.54133606 C100.79991052 160.54729609 96.97821574 160.54917923 93.15649414 160.54858398 C88.3032628 160.54848262 83.45017859 160.5621225 78.596982 160.57935619 C74.82101299 160.5905754 71.04507842 160.59250016 67.26909447 160.59197426 C65.4820626 160.59313996 63.69502941 160.59748057 61.9080143 160.60530663 C42.17764416 160.68362164 19.47290654 160.60054374 4 146.55078125 C-8.70978958 132.99367237 -10.1437772 114.45195756 -10.16503906 96.72875977 C-10.17000397 95.71774704 -10.17496887 94.70673431 -10.18008423 93.66508484 C-10.19456153 90.35744525 -10.20147888 87.0498534 -10.20703125 83.7421875 C-10.21278889 81.43196106 -10.21854654 79.12173462 -10.2243042 76.81150818 C-10.23476895 71.98769917 -10.24064305 67.16390663 -10.24414062 62.34008789 C-10.24965574 56.15039768 -10.27376656 49.96092408 -10.30211258 43.77130222 C-10.3206901 39.00934699 -10.32594166 34.24744488 -10.3274765 29.48545647 C-10.33050803 27.20202369 -10.33855328 24.91859195 -10.35166168 22.63519478 C-10.36864065 19.45397139 -10.36686338 16.27329082 -10.36035156 13.09204102 C-10.36956635 12.14606049 -10.37878113 11.20007996 -10.38827515 10.22543335 C-10.38270599 9.36068893 -10.37713684 8.49594452 -10.37139893 7.60499573 C-10.37286549 6.85381753 -10.37433205 6.10263933 -10.37584305 5.32869816 C-9.30555136 -0.32701912 -4.89387103 -0.01148432 0 0 Z " fill="#FFFFFF" transform="translate(624.00390625,103.63671875)"/>
<path d="M0 0 C0.66 0 1.32 0 2 0 C2.06978677 8.05871008 2.12295574 16.117292 2.15543652 24.17623043 C2.17103274 27.91910991 2.19215898 31.66178127 2.22631836 35.40454102 C2.25912954 39.02259402 2.27689836 42.64044797 2.28463173 46.25863838 C2.29013651 47.63281954 2.30088513 49.00699091 2.31719017 50.38108635 C2.41458751 58.9364126 2.49790267 67.11613589 -2.65625 74.3125 C-3.2646875 74.869375 -3.873125 75.42625 -4.5 76 C-5.20769531 76.65355469 -5.91539062 77.30710937 -6.64453125 77.98046875 C-10.04152491 80.89298238 -13.48035958 83.74440404 -16.96875 86.546875 C-20.41699266 89.33746313 -23.80610042 92.19162273 -27.1875 95.0625 C-27.76459717 95.55210205 -28.34169434 96.0417041 -28.9362793 96.54614258 C-30.29149851 97.6966683 -31.64584853 98.84821775 -33 100 C-31.4163944 104.35750299 -28.02033999 106.82231472 -24.5625 109.6875 C-23.93794922 110.21496826 -23.31339844 110.74243652 -22.66992188 111.28588867 C-19.75478517 113.73931348 -16.81562336 116.15958371 -13.83984375 118.5390625 C0.37232084 129.91661379 0.37232084 129.91661379 2 140 C2.26785297 144.78289459 2.2329095 149.5546621 2.1953125 154.34375 C2.19157576 155.72236932 2.18873191 157.10099132 2.18673706 158.47961426 C2.17915258 162.08320634 2.15954962 165.68663355 2.1373291 169.29016113 C2.11675802 172.97727225 2.10771142 176.66441037 2.09765625 180.3515625 C2.07629802 187.56778295 2.04222592 194.78386825 2 202 C-2.02542649 200.11713048 -5.12076903 197.4764818 -8.4375 194.5625 C-9.69496964 193.47095907 -10.95278989 192.37982192 -12.2109375 191.2890625 C-13.16178223 190.46196777 -13.16178223 190.46196777 -14.13183594 189.61816406 C-16.92230216 187.20112144 -19.74063467 184.81773457 -22.5625 182.4375 C-23.6367312 181.52996265 -24.71094995 180.62241057 -25.78515625 179.71484375 C-26.31512207 179.26737793 -26.84508789 178.81991211 -27.39111328 178.35888672 C-29.55303163 176.53290227 -31.7132358 174.70489675 -33.87329102 172.87670898 C-34.95566254 171.96068121 -36.03818153 171.04482764 -37.12084961 170.12915039 C-39.85636732 167.81543212 -42.59001211 165.49956105 -45.3203125 163.1796875 C-50.30314347 158.94920376 -55.29702715 154.7414632 -60.375 150.625 C-65.49733524 146.45843577 -70.47417378 142.13798719 -75.45043945 137.79956055 C-79.96077664 133.87630678 -84.55011885 130.06770787 -89.1953125 126.3046875 C-93.08460128 123.10875382 -96.89365482 119.82278315 -100.70776367 116.5378418 C-106.41749523 111.6258456 -112.198276 106.80289239 -118 102 C-116.49775154 98.26107049 -114.39834702 96.45906395 -111.25 94 C-106.79884672 90.45534791 -102.43309349 86.84217354 -98.125 83.125 C-96.93116574 82.09745155 -95.73715472 81.07010843 -94.54296875 80.04296875 C-93.95306152 79.53556152 -93.3631543 79.0281543 -92.75537109 78.50537109 C-88.39727286 74.76795333 -84.00454473 71.07122349 -79.61767578 67.36767578 C-77.97091021 65.97540583 -76.32689933 64.57994527 -74.68359375 63.18359375 C-69.69973752 58.95146367 -64.70440728 54.74262602 -59.625 50.625 C-54.50266476 46.45843577 -49.52582622 42.13798719 -44.54956055 37.79956055 C-40.03784637 33.87510903 -35.44674445 30.06573217 -30.80078125 26.30078125 C-26.937176 23.12691306 -23.1496501 19.86785735 -19.36035156 16.60595703 C-14.59656236 12.50562992 -9.80482592 8.43956131 -4.99853516 4.38916016 C-2.43630524 2.26427755 -2.43630524 2.26427755 0 0 Z " fill="#FFFFFF" transform="translate(589,116)"/>
<path d="M0 0 C3.00547352 1.77741159 5.76777586 3.50296093 8.3828125 5.8203125 C9.28870117 6.61598633 9.28870117 6.61598633 10.21289062 7.42773438 C10.84388672 7.98783203 11.47488281 8.54792969 12.125 9.125 C16.52804571 12.98994313 20.94160427 16.81769234 25.5 20.5 C29.91668944 24.07541526 34.21780385 27.76599348 38.5 31.5 C43.65851311 35.99747977 48.88157094 40.38995452 54.19921875 44.69921875 C58.6799762 48.38006413 63.06159186 52.17513193 67.45703125 55.95703125 C70.81142628 58.84230575 74.18291989 61.70679062 77.5625 64.5625 C78.09472168 65.01222168 78.62694336 65.46194336 79.17529297 65.92529297 C80.2471334 66.83068442 81.31907326 67.73595817 82.39111328 68.64111328 C84.55311927 70.46717175 86.71341692 72.29524427 88.87353516 74.12353516 C89.95504353 75.03880747 91.03674828 75.95384779 92.11865234 76.86865234 C94.86780301 79.19345416 97.6140843 81.52151212 100.35546875 83.85546875 C106.81667615 89.35046149 113.33618134 94.75017446 120 100 C116.30356211 104.97107165 111.97840588 108.59227529 107.15234375 112.453125 C103.74419317 115.1848077 100.43292424 118.02335695 97.125 120.875 C95.93370024 121.89986338 94.74229365 122.92460259 93.55078125 123.94921875 C92.96119629 124.45630371 92.37161133 124.96338867 91.76416016 125.48583984 C85.11480163 131.19291452 78.43124843 136.85560504 71.625 142.375 C66.50266476 146.54156423 61.52582622 150.86201281 56.54956055 155.20043945 C52.03784637 159.12489097 47.44674445 162.93426783 42.80078125 166.69921875 C39.53670217 169.38058916 36.3274928 172.12062863 33.125 174.875 C32.53541504 175.38208496 31.94583008 175.88916992 31.33837891 176.41162109 C30.74847168 176.91902832 30.15856445 177.42643555 29.55078125 177.94921875 C24.06378207 182.66842794 18.54157982 187.34507295 13 192 C12.20722656 192.66902344 12.20722656 192.66902344 11.3984375 193.3515625 C9.87423248 194.63549875 8.34349645 195.91166963 6.8125 197.1875 C5.93207031 197.92355469 5.05164063 198.65960938 4.14453125 199.41796875 C2 201 2 201 0 201 C-0.09296287 192.66327561 -0.16389722 184.32677028 -0.20724869 175.98965454 C-0.22806256 172.1177531 -0.2562651 168.24620808 -0.30175781 164.37451172 C-0.34543929 160.63325532 -0.36918367 156.89234026 -0.37950897 153.15084839 C-0.38686064 151.72836947 -0.40121638 150.30590777 -0.42292023 148.88357544 C-0.56357437 139.27796477 -0.26170513 132.68994778 6.41015625 125.34765625 C7.72306641 124.21650391 7.72306641 124.21650391 9.0625 123.0625 C10.02929688 122.22203125 10.99609375 121.3815625 11.9921875 120.515625 C15.77503357 117.3517901 19.57284609 114.20997206 23.4140625 111.1171875 C26.51377847 108.57935358 29.48900234 105.92172551 32.44140625 103.21484375 C34 102 34 102 36 102 C27.17690604 92.88280291 17.41135253 84.63133336 7.31640625 76.9609375 C3.47690656 73.71063591 1.58996339 69.76989016 0 65 C-0.08932308 62.89909979 -0.11759269 60.79542123 -0.11352539 58.69262695 C-0.11344986 57.39150467 -0.11337433 56.09038239 -0.11329651 54.74983215 C-0.10818985 53.3293148 -0.10297385 51.90879783 -0.09765625 50.48828125 C-0.09579091 49.03525338 -0.09436756 47.58222489 -0.09336853 46.12919617 C-0.08955246 42.30693828 -0.07972993 38.48471845 -0.06866455 34.66247559 C-0.05843087 30.76131709 -0.05386671 26.86015243 -0.04882812 22.95898438 C-0.03810686 15.30597224 -0.02104135 7.65299146 0 0 Z " fill="#FFFFFF" transform="translate(426,31)"/>
</svg>
