<svg width="32" height="32" viewBox="0 0 32 32" fill="none" xmlns="http://www.w3.org/2000/svg">
<path d="M6.84102 11.514C6.17103 9.05895 7.67217 6.60921 10.2684 5.4738C10.7293 5.2732 11.2491 5.25536 11.7227 5.4239C12.1962 5.59244 12.5878 5.93475 12.8183 6.38141L13.9504 8.58542C14.1326 8.93998 14.2047 9.34089 14.1575 9.73672C14.1102 10.1325 13.9457 10.5052 13.6852 10.8069L11.3882 13.4599C11.2748 13.5908 11.1974 13.7489 11.1635 13.9188C11.1296 14.0886 11.1403 14.2643 11.1947 14.4287L11.2306 14.5293L11.3222 14.7804C11.7886 15.9977 12.4158 17.1471 13.1873 18.1978C14.0258 19.3113 15.0193 20.299 16.1378 21.1308L16.2255 21.193C16.3671 21.292 16.5319 21.3527 16.7039 21.369C16.8759 21.3854 17.0492 21.3569 17.2069 21.2863L20.4088 19.853C20.7727 19.6905 21.1769 19.6404 21.5695 19.7092C21.9621 19.778 22.3251 19.9625 22.6121 20.2391L24.4075 21.9653C25.1554 22.6838 25.2118 23.8611 24.5404 24.65C22.7036 26.8105 19.9164 27.5332 17.7616 26.179C15.1185 24.5124 12.8056 22.3725 10.939 19.8667C9.05764 17.3661 7.66849 14.5319 6.84102 11.514ZM13.292 14.3178L15.1944 12.1154C15.7159 11.5122 16.0452 10.7669 16.1401 9.9752C16.2349 9.18349 16.091 8.3815 15.7268 7.67217L14.5967 5.46793C14.1337 4.56892 13.3458 3.87988 12.3932 3.54074C11.4405 3.20161 10.3945 3.23782 9.46753 3.64203C6.243 5.05385 3.90759 8.36368 4.91113 12.0424C5.6124 14.6106 6.91486 17.8297 9.33897 21.0675C11.3527 23.7692 13.8475 26.0764 16.6981 27.8731C19.9302 29.9035 23.7814 28.6343 26.0665 25.9484C26.7204 25.1804 27.0566 24.1918 27.0065 23.1843C26.9563 22.1769 26.5236 21.2266 25.7967 20.5273L24.0011 18.7991C23.4268 18.2467 22.7005 17.8784 21.9154 17.7415C21.1304 17.6046 20.3223 17.7054 19.5949 18.0308L16.9364 19.2197C16.1385 18.568 15.4196 17.8252 14.7945 17.0063C14.1865 16.1754 13.6826 15.2731 13.2942 14.3196" fill="white"/>
</svg>
