<svg width="57" height="56" viewBox="0 0 57 56" fill="none" xmlns="http://www.w3.org/2000/svg">
<path d="M10.6719 11.8674L12.3016 15.2361L15.9985 15.7393C16.7313 15.8377 16.9938 16.7455 16.4907 17.2268L13.7891 19.819L14.4563 23.494C14.5876 24.2158 13.8219 24.7627 13.1876 24.4127L9.89538 22.6408L6.60319 24.4127C5.96881 24.7518 5.17038 24.2268 5.34538 23.4393L6.00163 19.808L3.30006 17.2158C2.77506 16.7127 3.05944 15.8158 3.80319 15.7174L7.48913 15.2143L9.11881 11.8455C9.42506 11.2002 10.3657 11.2111 10.6719 11.8674ZM10.9344 16.4174L9.89538 14.2518L8.84538 16.4174C8.72506 16.669 8.4735 16.8658 8.17819 16.9096L5.80475 17.2268L7.54381 18.8893C7.74069 19.0861 7.85006 19.3705 7.79537 19.6658L7.36881 22.0283L9.46881 20.9018C9.72038 20.7705 10.0376 20.7486 10.3001 20.9018L12.411 22.0393L11.9954 19.7205C11.9298 19.4361 12.0063 19.119 12.236 18.8893L13.9751 17.2268L11.6235 16.9096C11.3391 16.8768 11.0657 16.6908 10.9344 16.4174ZM29.2876 3.9377L30.9172 7.30645L34.6251 7.80958C35.3579 7.90802 35.6204 8.81583 35.1173 9.30802L32.4157 11.9002L33.0829 15.5752C33.2141 16.2971 32.4485 16.844 31.8141 16.494L28.5001 14.7221L25.2079 16.494C24.5735 16.833 23.7751 16.308 23.9501 15.5205L24.6063 11.8893L21.8938 9.29708C21.3688 8.79395 21.6532 7.89708 22.3969 7.79864L26.0829 7.29552L27.7126 3.9377C28.0407 3.27052 28.9704 3.28145 29.2876 3.9377ZM29.5501 8.4877L28.5001 6.32208L27.461 8.4877C27.3407 8.73927 27.0891 8.93614 26.7938 8.97989L24.4094 9.29708L26.1485 10.9596C26.3563 11.1565 26.4548 11.4408 26.4001 11.7361L25.9735 14.0986L28.0844 12.9721C28.336 12.8408 28.6422 12.819 28.9157 12.9721L31.0266 14.1096L30.611 11.7908C30.5454 11.5065 30.6219 11.1893 30.8516 10.9596L32.5907 9.29708L30.2391 8.96895C29.9438 8.94708 29.6813 8.76114 29.5501 8.4877ZM47.8923 11.8674L49.5219 15.2361L53.2188 15.7393C53.9516 15.8377 54.2251 16.7455 53.711 17.2268L51.0094 19.819L51.6766 23.494C51.8079 24.2158 51.0423 24.7627 50.4079 24.4127L47.1157 22.6408L43.8235 24.4127C43.1891 24.7518 42.3907 24.2268 42.5548 23.4393L43.211 19.808L40.5094 17.2158C39.9844 16.7127 40.2688 15.8158 41.0126 15.7174L44.6985 15.2143L46.3282 11.8455C46.6454 11.2002 47.586 11.2111 47.8923 11.8674ZM48.1548 16.4174L47.1157 14.2518L46.0657 16.4174C45.9454 16.669 45.7048 16.8658 45.3985 16.9096L43.0251 17.2268L44.7532 18.8893C44.9501 19.0861 45.0594 19.3705 45.0047 19.6658L44.5782 22.0283L46.6891 20.9018C46.9407 20.7705 47.2579 20.7486 47.5204 20.9018L49.6423 22.0393L49.2266 19.7205C49.161 19.4361 49.2376 19.119 49.4673 18.8893L51.1954 17.2268L48.8438 16.9096C48.5594 16.8768 48.286 16.6908 48.1548 16.4174ZM24.4422 34.2018C24.2016 33.7861 24.3438 33.2502 24.7594 33.0096C25.1751 32.769 25.711 32.9111 25.9516 33.3268L27.1001 35.3174L31.1798 31.2377C31.5188 30.8986 32.0766 30.8986 32.4157 31.2377C32.7547 31.5768 32.7547 32.1346 32.4157 32.4736L27.5266 37.3627C27.1219 37.7674 26.4438 37.6799 26.1594 37.1877L24.4422 34.2018ZM28.5001 24.9596C33.2579 24.9596 37.1188 28.8205 37.1188 33.5783C37.1188 38.3361 33.2579 42.1971 28.5001 42.1971C23.7423 42.1971 19.8813 38.3361 19.8813 33.5783C19.8813 28.8205 23.7423 24.9596 28.5001 24.9596ZM33.3563 28.7221C30.6766 26.0424 26.3235 26.0424 23.6438 28.7221C20.9641 31.4018 20.9641 35.7549 23.6438 38.4346C26.3235 41.1143 30.6766 41.1143 33.3563 38.4346C36.036 35.744 36.036 31.4018 33.3563 28.7221ZM28.5001 19.5455C36.2438 19.5455 42.5219 25.8236 42.5219 33.5674C42.5219 36.4986 41.6251 39.2221 40.0829 41.4752L44.2719 48.7268C44.6766 49.4049 44.1188 50.1705 43.3969 50.0611L39.1094 49.383L36.8126 52.2049C36.4079 52.7299 35.6532 52.6424 35.3579 52.1174L32.4266 47.0424C29.8673 47.7861 27.1219 47.7861 24.5735 47.0424L21.6423 52.1174C21.3469 52.6424 20.5922 52.7299 20.1876 52.2049L17.8907 49.383L13.6032 50.0611C12.8704 50.1815 12.3563 49.383 12.7063 48.7596L16.9173 41.4752C13.111 35.908 13.8219 28.4158 18.5907 23.6471C21.1172 21.1205 24.6282 19.5455 28.5001 19.5455ZM38.9235 42.9518C37.5891 44.4393 35.9485 45.6315 34.0891 46.4408L36.2329 50.1486L38.0704 47.8955C38.2782 47.633 38.5954 47.5346 38.9016 47.5893L41.8548 48.0596L38.9235 42.9518ZM22.9001 46.4408C21.0516 45.6315 19.411 44.4393 18.0766 42.9627L15.1344 48.0596L18.0876 47.5893C18.3829 47.5346 18.711 47.644 18.9188 47.8955L20.7563 50.1486L22.9001 46.4408ZM37.1844 24.894C32.3938 20.1033 24.6172 20.1033 19.8266 24.894C15.036 29.6846 15.036 37.4611 19.8266 42.2518C24.6282 47.0424 32.3938 47.0424 37.1844 42.2518C41.9751 37.4611 41.9751 29.6846 37.1844 24.894Z" fill="#F62D17"/>
</svg>
