<svg width="48" height="48" viewBox="0 0 48 48" fill="none" xmlns="http://www.w3.org/2000/svg">
<rect width="48" height="48" rx="24" fill="#F09021" fill-opacity="0.15"/>
<path d="M36 24.0339L25.3397 33.9304C23.8599 35.2688 21.8717 36.0123 19.8057 35.9998C17.7397 35.9874 15.7621 35.2199 14.3012 33.8637C12.8403 32.5075 12.0136 30.6716 12.0002 28.7536C11.9867 26.8357 12.7876 24.99 14.2294 23.6162L25.2082 13.4241C26.1904 12.5123 27.5226 12 28.9116 12C30.3007 12 31.6329 12.5123 32.6151 13.4241C33.5973 14.3359 34.1491 15.5726 34.1491 16.8621C34.1491 18.1517 33.5973 19.3884 32.6151 20.3002L21.9529 30.1984C21.4618 30.6543 20.7957 30.9104 20.1012 30.9104C19.4066 30.9104 18.7406 30.6543 18.2495 30.1984C17.7584 29.7424 17.4825 29.1241 17.4825 28.4793C17.4825 27.8346 17.7584 27.2162 18.2495 26.7603L28.5931 17.1578" stroke="#F09021" stroke-width="2"/>
</svg>
