<svg width="32" height="32" viewBox="0 0 32 32" fill="none" xmlns="http://www.w3.org/2000/svg">
<path d="M16.591 4.76947C20.1336 4.76947 20.5547 4.76947 21.9485 4.84206C22.7906 4.84206 23.6327 5.00177 24.4167 5.29214C25.5782 5.74222 26.4929 6.65689 26.9285 7.80387C27.2188 8.58787 27.3785 9.42995 27.393 10.272C27.4511 11.6658 27.4656 12.0869 27.4656 15.6294C27.4656 19.172 27.4656 19.593 27.393 20.9868C27.393 21.8289 27.2333 22.671 26.9285 23.455C26.4784 24.6165 25.5637 25.5311 24.4167 25.9667C23.6327 26.2571 22.7906 26.4168 21.9485 26.4313C20.5547 26.4894 20.1336 26.5039 16.591 26.5039C13.0484 26.5039 12.6274 26.4894 11.2336 26.4313C10.3915 26.4313 9.54938 26.2716 8.76537 25.9667C7.60386 25.5166 6.68918 24.6019 6.25361 23.455C5.96324 22.671 5.80354 21.8289 5.78902 20.9868C5.73095 19.593 5.71642 19.172 5.71642 15.6294C5.71642 12.0869 5.71643 11.6658 5.78902 10.272C5.78902 9.42995 5.94872 8.58787 6.25361 7.80387C6.7037 6.64237 7.61838 5.7277 8.76537 5.29214C9.54938 5.00177 10.3915 4.84206 11.2336 4.84206C12.6274 4.78399 13.0484 4.76947 16.591 4.76947ZM16.591 2.37389C12.9904 2.37389 12.5403 2.38841 11.1174 2.46101C10.014 2.49004 8.92509 2.6933 7.89425 3.08531C6.10843 3.76768 4.70011 5.17599 4.01772 6.96179C3.62571 7.99261 3.42244 9.08151 3.3934 10.1849C3.33532 11.6078 3.3208 12.0433 3.3208 15.6585C3.3208 19.2736 3.33532 19.7092 3.3934 21.132C3.40792 22.2354 3.62571 23.3243 4.01772 24.3551C4.70011 26.1409 6.10843 27.5492 7.89425 28.2316C8.92509 28.6236 10.014 28.8269 11.1174 28.8414C12.5403 28.8995 12.9904 28.9285 16.591 28.9285C20.1917 28.9285 20.6418 28.914 22.0646 28.8414C23.1681 28.8269 24.257 28.6091 25.2878 28.2171C27.0736 27.5347 28.482 26.1264 29.1643 24.3406C29.5564 23.3098 29.7596 22.2209 29.7741 21.1175C29.8322 19.7092 29.8467 19.2591 29.8467 15.6439C29.8467 12.0288 29.8322 11.5932 29.7741 10.1704C29.7451 9.06699 29.5418 7.97809 29.1643 6.94727C28.482 5.16147 27.0736 3.75316 25.2878 3.07079C24.257 2.67878 23.1681 2.47552 22.0646 2.44649C20.6418 2.38841 20.1917 2.35938 16.591 2.35938" fill="white"/>
<path d="M16.5911 8.83398C12.8307 8.83398 9.78174 11.8829 9.78174 15.6432C9.78174 19.4036 12.8307 22.4525 16.5911 22.4525C20.3515 22.4525 23.4004 19.4036 23.4004 15.6432C23.4004 11.8829 20.3515 8.83398 16.5911 8.83398ZM16.5911 20.0714C14.1519 20.0714 12.1628 18.0969 12.1628 15.6432C12.1628 13.2041 14.1374 11.215 16.5911 11.215C19.0302 11.215 21.0193 13.1896 21.0193 15.6432C21.0193 18.0969 19.0448 20.0714 16.5911 20.0714Z" fill="white"/>
<path d="M25.4476 8.64588C25.4476 9.53152 24.7361 10.2429 23.8505 10.2429C22.9649 10.2429 22.2534 9.53152 22.2534 8.64588C22.2534 7.76024 22.9649 7.04883 23.8505 7.04883C24.7361 7.04883 25.4476 7.76024 25.4476 8.64588Z" fill="white" stroke="white" stroke-width="0.523561"/>
</svg>
