<svg width="30" height="30" viewBox="0 0 30 30" fill="none" xmlns="http://www.w3.org/2000/svg">
<path d="M16.8907 18.6394C16.8907 16.1416 18.0362 14.662 20.2318 14.662C22.2523 14.662 23.2228 16.0939 23.2228 18.6394V27.9466H28.6799V16.7303C28.6799 11.9892 25.9911 9.6823 22.2364 9.6823C20.0727 9.65049 18.0362 10.7642 16.8907 12.6097V10.2232H11.6245V27.9466H16.8907V18.6394Z" fill="white"/>
<path d="M8.12416 10.2227H2.63525V27.946H8.12416V10.2227Z" fill="white"/>
<path d="M5.35547 7.89935C7.1692 7.89935 8.63292 6.46748 8.64883 4.65378C8.64883 2.84008 7.21692 1.37639 5.4032 1.36048C3.58947 1.34457 2.12577 2.79235 2.10986 4.60605C2.10986 4.60605 2.10986 4.62196 2.10986 4.63787C2.10986 6.43567 3.55765 7.89935 5.35547 7.91526" fill="white"/>
</svg>
